<?xml version='1.0' encoding='ascii'?>
<svg xmlns="http://www.w3.org/2000/svg" height="512" version="1.1" width="512">
    <g id="View Layer_LineSet" inkscape:groupmode="lineset" inkscape:label="View Layer_LineSet" xmlns:inkscape="http://www.inkscape.org/namespaces/inkscape">
        <g id="strokes" inkscape:groupmode="layer" inkscape:label="strokes" xmlns:inkscape="http://www.inkscape.org/namespaces/inkscape">
            <path d=" M 434.417, 136.677 424.717, 134.247 415.016, 131.817 405.316, 129.387 395.616, 126.957 385.916, 124.527 376.216, 122.097 366.515, 119.667 356.815, 117.237 347.115, 114.807 337.415, 112.376 327.714, 109.946 318.014, 107.516 308.314, 105.086 298.614, 102.656 288.913, 100.226 279.213, 97.796 269.513, 95.366 258.693, 92.655 248.946, 94.888 239.198, 97.121 229.451, 99.354 219.703, 101.587 209.956, 103.820 200.208, 106.053 190.461, 108.286 180.713, 110.519 170.966, 112.752 161.218, 114.985 151.471, 117.218 141.723, 119.451 131.976, 121.684 122.228, 123.916 112.481, 126.149 102.733, 128.382 92.986, 130.615 83.238, 132.848 77.523, 134.157 78.665, 144.092 79.808, 154.026 80.951, 163.961 82.093, 173.896 83.236, 183.830 84.378, 193.765 85.521, 203.699 86.664, 213.634 87.806, 223.568 88.949, 233.503 90.091, 243.437 91.234, 253.372 92.376, 263.306 93.519, 273.241 94.662, 283.175 95.804, 293.110 96.947, 303.044 98.089, 312.979 99.232, 322.913 100.375, 332.848 101.517, 342.782 101.770, 344.982 109.830, 350.902 117.890, 356.821 125.949, 362.741 134.009, 368.660 142.069, 374.580 150.129, 380.499 158.188, 386.419 166.248, 392.338 174.308, 398.258 182.367, 404.178 190.427, 410.097 198.487, 416.017 206.547, 421.936 214.606, 427.856 222.666, 433.775 230.726, 439.695 238.786, 445.614 246.845, 451.534 250.334, 454.096 258.689, 448.602 267.045, 443.107 275.400, 437.613 283.756, 432.118 292.111, 426.624 300.466, 421.130 308.822, 415.635 317.177, 410.141 325.532, 404.647 333.888, 399.152 342.243, 393.658 350.598, 388.163 358.954, 382.669 367.309, 377.175 375.664, 371.680 384.020, 366.186 392.375, 360.692 400.730, 355.197 409.950, 349.134 411.094, 339.200 412.238, 329.266 413.383, 319.331 414.527, 309.397 415.671, 299.463 416.815, 289.528 417.959, 279.594 419.103, 269.659 420.247, 259.725 421.391, 249.791 422.535, 239.856 423.679, 229.922 424.823, 219.988 425.967, 210.053 427.111, 200.119 428.255, 190.185 429.399, 180.250 430.543, 170.316 431.687, 160.382 432.831, 150.447 433.975, 140.513 434.417, 136.677 " fill="none" stroke="rgb(0, 0, 0)" stroke-linecap="butt" stroke-linejoin="round" stroke-opacity="1.0" stroke-width="3.0" />
            <path d=" M 77.523, 134.157 86.805, 137.877 96.088, 141.597 105.370, 145.317 114.652, 149.037 123.935, 152.757 133.217, 156.477 142.500, 160.196 151.782, 163.916 161.064, 167.636 170.347, 171.356 179.629, 175.076 188.912, 178.796 198.194, 182.516 207.476, 186.235 216.759, 189.955 226.041, 193.675 235.323, 197.395 244.606, 201.115 249.179, 202.947 " fill="none" stroke="rgb(0, 0, 0)" stroke-linecap="butt" stroke-linejoin="round" stroke-opacity="1.0" stroke-width="3.0" />
            <path d=" M 250.334, 454.096 250.288, 444.096 250.242, 434.096 250.196, 424.096 250.150, 414.096 250.104, 404.097 250.058, 394.097 250.012, 384.097 249.966, 374.097 249.920, 364.097 249.874, 354.097 249.828, 344.097 249.782, 334.097 249.736, 324.097 249.690, 314.097 249.644, 304.098 249.598, 294.098 249.552, 284.098 249.506, 274.098 249.460, 264.098 249.414, 254.098 249.368, 244.098 249.322, 234.098 249.276, 224.098 249.230, 214.099 249.179, 202.947 258.595, 199.579 268.010, 196.210 277.426, 192.842 286.841, 189.473 296.257, 186.105 305.673, 182.736 315.088, 179.368 324.504, 175.999 333.919, 172.631 343.335, 169.263 352.751, 165.894 362.166, 162.526 371.582, 159.157 380.997, 155.789 390.413, 152.420 399.828, 149.052 409.244, 145.683 418.660, 142.315 428.075, 138.946 434.417, 136.677 " fill="none" stroke="rgb(0, 0, 0)" stroke-linecap="butt" stroke-linejoin="round" stroke-opacity="1.0" stroke-width="3.0" />
        </g>
    </g>
</svg>
