<?xml version='1.0' encoding='ascii'?>
<svg xmlns="http://www.w3.org/2000/svg" height="512" version="1.1" width="512">
    <g id="View Layer_LineSet" inkscape:groupmode="lineset" inkscape:label="View Layer_LineSet" xmlns:inkscape="http://www.inkscape.org/namespaces/inkscape">
        <g id="strokes" inkscape:groupmode="layer" inkscape:label="strokes" xmlns:inkscape="http://www.inkscape.org/namespaces/inkscape">
            <path d=" M 433.824, 135.838 424.107, 133.473 414.391, 131.108 404.675, 128.743 394.958, 126.378 385.242, 124.013 375.526, 121.648 365.810, 119.283 356.093, 116.918 346.377, 114.553 336.661, 112.188 326.944, 109.823 317.228, 107.458 307.512, 105.093 297.795, 102.728 288.079, 100.363 278.363, 97.998 268.646, 95.633 258.930, 93.268 256.375, 92.646 246.642, 94.942 236.909, 97.237 227.176, 99.532 217.443, 101.827 207.710, 104.123 197.977, 106.418 188.244, 108.713 178.511, 111.008 168.778, 113.304 159.045, 115.599 149.312, 117.894 139.579, 120.189 129.846, 122.485 120.113, 124.780 110.380, 127.075 100.647, 129.371 90.914, 131.666 81.181, 133.961 76.840, 134.985 77.988, 144.918 79.135, 154.852 80.283, 164.786 81.430, 174.720 82.578, 184.654 83.725, 194.588 84.873, 204.522 86.020, 214.456 87.168, 224.390 88.315, 234.324 89.463, 244.258 90.610, 254.192 91.758, 264.126 92.905, 274.060 94.053, 283.994 95.200, 293.928 96.348, 303.862 97.495, 313.796 98.643, 323.729 99.790, 333.663 100.938, 343.597 101.255, 346.347 109.415, 352.128 117.574, 357.909 125.734, 363.690 133.893, 369.472 142.053, 375.253 150.212, 381.034 158.372, 386.816 166.531, 392.597 174.690, 398.378 182.850, 404.160 191.009, 409.941 199.169, 415.722 207.328, 421.503 215.488, 427.285 223.647, 433.066 231.807, 438.847 239.966, 444.629 248.125, 450.410 253.376, 454.130 261.640, 448.500 269.904, 442.869 278.169, 437.239 286.433, 431.608 294.697, 425.978 302.961, 420.347 311.226, 414.717 319.490, 409.086 327.754, 403.456 336.018, 397.825 344.283, 392.195 352.547, 386.565 360.811, 380.934 369.075, 375.304 377.340, 369.673 385.604, 364.043 393.868, 358.412 402.132, 352.782 409.514, 347.753 410.654, 337.818 411.793, 327.883 412.933, 317.948 414.073, 308.013 415.212, 298.079 416.352, 288.144 417.492, 278.209 418.631, 268.274 419.771, 258.339 420.911, 248.404 422.050, 238.470 423.190, 228.535 424.330, 218.600 425.469, 208.665 426.609, 198.730 427.749, 188.795 428.888, 178.861 430.028, 168.926 431.168, 158.991 432.307, 149.056 433.447, 139.121 433.824, 135.838 " fill="none" stroke="rgb(0, 0, 0)" stroke-linecap="butt" stroke-linejoin="round" stroke-opacity="1.0" stroke-width="3.0" />
            <path d=" M 76.840, 134.985 86.169, 138.588 95.497, 142.191 104.825, 145.794 114.153, 149.398 123.482, 153.001 132.810, 156.604 142.138, 160.208 151.466, 163.811 160.795, 167.414 170.123, 171.018 179.451, 174.621 188.779, 178.224 198.108, 181.827 207.436, 185.431 216.764, 189.034 226.092, 192.637 235.421, 196.241 244.749, 199.844 252.841, 202.970 " fill="none" stroke="rgb(0, 0, 0)" stroke-linecap="butt" stroke-linejoin="round" stroke-opacity="1.0" stroke-width="3.0" />
            <path d=" M 253.376, 454.130 253.355, 444.130 253.333, 434.130 253.312, 424.130 253.291, 414.130 253.269, 404.130 253.248, 394.130 253.227, 384.130 253.205, 374.130 253.184, 364.130 253.163, 354.130 253.142, 344.130 253.120, 334.130 253.099, 324.130 253.078, 314.130 253.056, 304.130 253.035, 294.130 253.014, 284.130 252.992, 274.130 252.971, 264.130 252.950, 254.130 252.929, 244.131 252.907, 234.131 252.886, 224.131 252.865, 214.131 252.841, 202.970 262.217, 199.492 271.592, 196.014 280.968, 192.537 290.344, 189.059 299.720, 185.581 309.096, 182.103 318.471, 178.626 327.847, 175.148 337.223, 171.670 346.599, 168.192 355.974, 164.715 365.350, 161.237 374.726, 157.759 384.102, 154.281 393.478, 150.804 402.853, 147.326 412.229, 143.848 421.605, 140.370 430.981, 136.893 433.824, 135.838 " fill="none" stroke="rgb(0, 0, 0)" stroke-linecap="butt" stroke-linejoin="round" stroke-opacity="1.0" stroke-width="3.0" />
        </g>
    </g>
</svg>
