<?xml version='1.0' encoding='ascii'?>
<svg xmlns="http://www.w3.org/2000/svg" height="512" version="1.1" width="512">
    <g id="View Layer_LineSet" inkscape:groupmode="lineset" inkscape:label="View Layer_LineSet" xmlns:inkscape="http://www.inkscape.org/namespaces/inkscape">
        <g id="strokes" inkscape:groupmode="layer" inkscape:label="strokes" xmlns:inkscape="http://www.inkscape.org/namespaces/inkscape">
            <path d=" M 432.785, 134.502 423.044, 132.239 413.304, 129.976 403.563, 127.713 393.822, 125.450 384.082, 123.187 374.341, 120.923 364.601, 118.660 354.860, 116.397 345.120, 114.134 335.379, 111.871 325.638, 109.608 315.898, 107.345 306.157, 105.082 296.417, 102.819 286.676, 100.556 276.936, 98.293 267.195, 96.030 257.455, 93.767 252.649, 92.651 242.940, 95.049 233.232, 97.447 223.524, 99.845 213.816, 102.243 204.108, 104.641 194.399, 107.039 184.691, 109.437 174.983, 111.835 165.275, 114.233 155.566, 116.631 145.858, 119.029 136.150, 121.427 126.442, 123.825 116.734, 126.223 107.025, 128.621 97.317, 131.019 87.609, 133.417 77.901, 135.815 75.828, 136.327 76.983, 146.260 78.138, 156.193 79.293, 166.126 80.448, 176.059 81.602, 185.992 82.757, 195.925 83.912, 205.858 85.067, 215.791 86.222, 225.724 87.377, 235.657 88.532, 245.591 89.687, 255.524 90.841, 265.457 91.996, 275.390 93.151, 285.323 94.306, 295.256 95.461, 305.189 96.616, 315.122 97.771, 325.055 98.926, 334.988 100.081, 344.921 100.503, 348.557 108.814, 354.118 117.126, 359.679 125.437, 365.240 133.748, 370.801 142.059, 376.362 150.370, 381.923 158.682, 387.484 166.993, 393.045 175.304, 398.606 183.615, 404.166 191.926, 409.727 200.238, 415.288 208.549, 420.849 216.860, 426.410 225.171, 431.971 233.482, 437.532 241.794, 443.093 250.105, 448.654 258.266, 454.114 266.375, 448.263 274.485, 442.412 282.595, 436.561 290.704, 430.710 298.814, 424.859 306.923, 419.008 315.033, 413.157 323.142, 407.306 331.252, 401.455 339.362, 395.604 347.471, 389.753 355.581, 383.902 363.690, 378.051 371.800, 372.200 379.910, 366.349 388.019, 360.498 396.129, 354.647 404.238, 348.796 408.736, 345.550 409.869, 335.615 411.001, 325.679 412.133, 315.743 413.265, 305.807 414.397, 295.872 415.529, 285.936 416.661, 276.000 417.794, 266.065 418.926, 256.129 420.058, 246.193 421.190, 236.257 422.322, 226.322 423.454, 216.386 424.586, 206.450 425.719, 196.515 426.851, 186.579 427.983, 176.643 429.115, 166.708 430.247, 156.772 431.379, 146.836 432.511, 136.900 432.785, 134.502 " fill="none" stroke="rgb(0, 0, 0)" stroke-linecap="butt" stroke-linejoin="round" stroke-opacity="1.0" stroke-width="3.0" />
            <path d=" M 75.828, 136.327 85.224, 139.750 94.620, 143.173 104.016, 146.596 113.412, 150.019 122.807, 153.442 132.203, 156.865 141.599, 160.288 150.995, 163.711 160.391, 167.134 169.787, 170.557 179.183, 173.980 188.579, 177.403 197.975, 180.826 207.370, 184.249 216.766, 187.672 226.162, 191.095 235.558, 194.518 244.954, 197.941 254.350, 201.365 258.728, 202.959 " fill="none" stroke="rgb(0, 0, 0)" stroke-linecap="butt" stroke-linejoin="round" stroke-opacity="1.0" stroke-width="3.0" />
            <path d=" M 258.266, 454.114 258.284, 444.114 258.303, 434.114 258.321, 424.114 258.339, 414.114 258.358, 404.114 258.376, 394.114 258.395, 384.114 258.413, 374.114 258.431, 364.114 258.450, 354.114 258.468, 344.114 258.487, 334.114 258.505, 324.115 258.523, 314.115 258.542, 304.115 258.560, 294.115 258.578, 284.115 258.597, 274.115 258.615, 264.115 258.634, 254.115 258.652, 244.115 258.670, 234.115 258.689, 224.115 258.707, 214.115 258.728, 202.959 268.034, 199.299 277.340, 195.639 286.646, 191.979 295.952, 188.319 305.258, 184.659 314.564, 180.999 323.870, 177.338 333.177, 173.678 342.483, 170.018 351.789, 166.358 361.095, 162.698 370.401, 159.038 379.707, 155.378 389.013, 151.717 398.319, 148.057 407.625, 144.397 416.931, 140.737 426.237, 137.077 432.785, 134.502 " fill="none" stroke="rgb(0, 0, 0)" stroke-linecap="butt" stroke-linejoin="round" stroke-opacity="1.0" stroke-width="3.0" />
        </g>
    </g>
</svg>
