<?xml version='1.0' encoding='ascii'?>
<svg xmlns="http://www.w3.org/2000/svg" height="512" version="1.1" width="512">
    <g id="View Layer_LineSet" inkscape:groupmode="lineset" inkscape:label="View Layer_LineSet" xmlns:inkscape="http://www.inkscape.org/namespaces/inkscape">
        <g id="strokes" inkscape:groupmode="layer" inkscape:label="strokes" xmlns:inkscape="http://www.inkscape.org/namespaces/inkscape">
            <path d=" M 431.222, 132.726 421.451, 130.595 411.681, 128.465 401.910, 126.334 392.140, 124.204 382.370, 122.073 372.599, 119.943 362.829, 117.812 353.058, 115.682 343.288, 113.551 333.518, 111.421 323.747, 109.290 313.977, 107.160 304.206, 105.029 294.436, 102.899 284.665, 100.768 274.895, 98.638 265.125, 96.507 255.354, 94.377 247.628, 92.692 237.957, 95.234 228.285, 97.776 218.613, 100.318 208.942, 102.860 199.270, 105.402 189.599, 107.943 179.927, 110.485 170.256, 113.027 160.584, 115.569 150.913, 118.111 141.241, 120.653 131.569, 123.195 121.898, 125.736 112.226, 128.278 102.555, 130.820 92.883, 133.362 83.212, 135.904 74.633, 138.159 75.796, 148.091 76.960, 158.023 78.124, 167.955 79.288, 177.887 80.452, 187.819 81.615, 197.751 82.779, 207.683 83.943, 217.615 85.107, 227.547 86.271, 237.479 87.434, 247.411 88.598, 257.343 89.762, 267.275 90.926, 277.207 92.090, 287.139 93.253, 297.071 94.417, 307.003 95.581, 316.935 96.745, 326.868 97.909, 336.800 99.072, 346.732 99.639, 351.569 108.139, 356.837 116.639, 362.105 125.139, 367.373 133.639, 372.640 142.139, 377.908 150.639, 383.176 159.140, 388.444 167.640, 393.712 176.140, 398.979 184.640, 404.247 193.140, 409.515 201.640, 414.783 210.140, 420.050 218.640, 425.318 227.140, 430.586 235.640, 435.854 244.140, 441.122 252.640, 446.389 261.140, 451.657 264.849, 453.956 272.733, 447.804 280.617, 441.653 288.501, 435.501 296.385, 429.350 304.269, 423.198 312.153, 417.046 320.037, 410.895 327.921, 404.743 335.805, 398.592 343.689, 392.440 351.573, 386.289 359.458, 380.137 367.342, 373.986 375.226, 367.834 383.110, 361.683 390.994, 355.531 398.878, 349.379 407.544, 342.618 408.665, 332.681 409.786, 322.744 410.907, 312.807 412.028, 302.870 413.149, 292.933 414.270, 282.996 415.391, 273.059 416.512, 263.122 417.633, 253.185 418.754, 243.248 419.875, 233.311 420.996, 223.374 422.117, 213.437 423.238, 203.500 424.359, 193.563 425.480, 183.626 426.601, 173.689 427.722, 163.752 428.843, 153.815 429.964, 143.879 431.222, 132.726 " fill="none" stroke="rgb(0, 0, 0)" stroke-linecap="butt" stroke-linejoin="round" stroke-opacity="1.0" stroke-width="3.0" />
            <path d=" M 74.633, 138.159 84.109, 141.352 93.586, 144.544 103.062, 147.737 112.539, 150.930 122.016, 154.123 131.492, 157.316 140.969, 160.509 150.445, 163.702 159.922, 166.895 169.398, 170.088 178.875, 173.281 188.351, 176.474 197.828, 179.667 207.305, 182.859 216.781, 186.052 226.258, 189.245 235.734, 192.438 245.211, 195.631 254.687, 198.824 264.164, 202.017 266.652, 202.855 " fill="none" stroke="rgb(0, 0, 0)" stroke-linecap="butt" stroke-linejoin="round" stroke-opacity="1.0" stroke-width="3.0" />
            <path d=" M 264.849, 453.956 264.921, 443.956 264.992, 433.956 265.064, 423.956 265.136, 413.957 265.208, 403.957 265.280, 393.957 265.352, 383.958 265.423, 373.958 265.495, 363.958 265.567, 353.958 265.639, 343.959 265.711, 333.959 265.782, 323.959 265.854, 313.959 265.926, 303.960 265.998, 293.960 266.070, 283.960 266.142, 273.960 266.213, 263.961 266.285, 253.961 266.357, 243.961 266.429, 233.961 266.501, 223.962 266.573, 213.962 266.652, 202.855 275.852, 198.935 285.051, 195.015 294.251, 191.095 303.450, 187.174 312.650, 183.254 321.849, 179.334 331.049, 175.413 340.249, 171.493 349.448, 167.573 358.648, 163.653 367.847, 159.732 377.047, 155.812 386.246, 151.892 395.446, 147.971 404.645, 144.051 413.845, 140.131 423.044, 136.211 431.222, 132.726 " fill="none" stroke="rgb(0, 0, 0)" stroke-linecap="butt" stroke-linejoin="round" stroke-opacity="1.0" stroke-width="3.0" />
        </g>
    </g>
</svg>
