<?xml version='1.0' encoding='ascii'?>
<svg xmlns="http://www.w3.org/2000/svg" height="512" version="1.1" width="512">
    <g id="View Layer_LineSet" inkscape:groupmode="lineset" inkscape:label="View Layer_LineSet" xmlns:inkscape="http://www.inkscape.org/namespaces/inkscape">
        <g id="strokes" inkscape:groupmode="layer" inkscape:label="strokes" xmlns:inkscape="http://www.inkscape.org/namespaces/inkscape">
            <path d=" M 429.040, 130.573 419.237, 128.600 409.434, 126.626 399.631, 124.652 389.827, 122.678 380.024, 120.705 370.221, 118.731 360.418, 116.757 350.614, 114.783 340.811, 112.810 331.008, 110.836 321.204, 108.862 311.401, 106.889 301.598, 104.915 291.795, 102.941 281.991, 100.967 272.188, 98.994 262.385, 97.020 252.581, 95.046 241.431, 92.801 231.810, 95.530 222.190, 98.259 212.570, 100.988 202.949, 103.717 193.329, 106.446 183.708, 109.175 174.088, 111.904 164.467, 114.633 154.847, 117.362 145.227, 120.091 135.606, 122.820 125.986, 125.549 116.365, 128.278 106.745, 131.007 97.125, 133.736 87.504, 136.465 77.884, 139.194 73.432, 140.457 74.605, 150.388 75.778, 160.319 76.951, 170.250 78.125, 180.181 79.298, 190.112 80.471, 200.043 81.644, 209.974 82.817, 219.905 83.990, 229.836 85.163, 239.767 86.336, 249.698 87.509, 259.629 88.683, 269.560 89.856, 279.491 91.029, 289.421 92.202, 299.352 93.375, 309.283 94.548, 319.214 95.721, 329.145 96.894, 339.076 98.067, 349.007 98.816, 355.340 107.526, 360.252 116.236, 365.164 124.947, 370.076 133.657, 374.988 142.367, 379.900 151.078, 384.812 159.788, 389.725 168.499, 394.637 177.209, 399.549 185.919, 404.461 194.630, 409.373 203.340, 414.285 212.051, 419.197 220.761, 424.110 229.471, 429.022 238.182, 433.934 246.892, 438.846 255.603, 443.758 264.313, 448.670 272.953, 453.543 280.529, 447.016 288.106, 440.489 295.682, 433.962 303.258, 427.435 310.834, 420.908 318.411, 414.381 325.987, 407.854 333.563, 401.328 341.139, 394.801 348.716, 388.274 356.292, 381.747 363.868, 375.220 371.444, 368.693 379.021, 362.166 386.597, 355.639 394.173, 349.112 401.749, 342.585 405.846, 339.056 406.952, 329.117 408.058, 319.178 409.164, 309.240 410.269, 299.301 411.375, 289.362 412.481, 279.424 413.586, 269.485 414.692, 259.546 415.798, 249.607 416.903, 239.669 418.009, 229.730 419.115, 219.791 420.221, 209.853 421.326, 199.914 422.432, 189.975 423.538, 180.037 424.643, 170.098 425.749, 160.159 426.855, 150.221 427.960, 140.282 429.040, 130.573 " fill="none" stroke="rgb(0, 0, 0)" stroke-linecap="butt" stroke-linejoin="round" stroke-opacity="1.0" stroke-width="3.0" />
            <path d=" M 73.432, 140.457 82.994, 143.384 92.556, 146.311 102.118, 149.238 111.680, 152.165 121.243, 155.091 130.805, 158.018 140.367, 160.945 149.929, 163.872 159.491, 166.799 169.053, 169.726 178.615, 172.652 188.177, 175.579 197.739, 178.506 207.301, 181.433 216.863, 184.360 226.426, 187.287 235.988, 190.213 245.550, 193.140 255.112, 196.067 264.674, 198.994 274.236, 201.921 276.405, 202.585 " fill="none" stroke="rgb(0, 0, 0)" stroke-linecap="butt" stroke-linejoin="round" stroke-opacity="1.0" stroke-width="3.0" />
            <path d=" M 272.953, 453.543 273.091, 443.544 273.228, 433.545 273.366, 423.546 273.503, 413.547 273.641, 403.548 273.778, 393.548 273.916, 383.549 274.054, 373.550 274.191, 363.551 274.329, 353.552 274.466, 343.553 274.604, 333.554 274.741, 323.555 274.879, 313.556 275.016, 303.557 275.154, 293.558 275.291, 283.559 275.429, 273.560 275.567, 263.561 275.704, 253.562 275.842, 243.563 275.979, 233.564 276.117, 223.565 276.254, 213.566 276.405, 202.585 285.449, 198.318 294.493, 194.051 303.537, 189.784 312.581, 185.517 321.625, 181.250 330.669, 176.984 339.713, 172.717 348.757, 168.450 357.801, 164.183 366.845, 159.916 375.889, 155.649 384.933, 151.383 393.977, 147.116 403.021, 142.849 412.065, 138.582 421.109, 134.315 429.040, 130.573 " fill="none" stroke="rgb(0, 0, 0)" stroke-linecap="butt" stroke-linejoin="round" stroke-opacity="1.0" stroke-width="3.0" />
        </g>
    </g>
</svg>
