<?xml version='1.0' encoding='ascii'?>
<svg xmlns="http://www.w3.org/2000/svg" height="512" version="1.1" width="512">
    <g id="View Layer_LineSet" inkscape:groupmode="lineset" inkscape:label="View Layer_LineSet" xmlns:inkscape="http://www.inkscape.org/namespaces/inkscape">
        <g id="strokes" inkscape:groupmode="layer" inkscape:label="strokes" xmlns:inkscape="http://www.inkscape.org/namespaces/inkscape">
            <path d=" M 426.146, 128.111 416.309, 126.313 406.472, 124.514 396.635, 122.715 386.798, 120.916 376.961, 119.118 367.124, 117.319 357.287, 115.520 347.450, 113.722 337.613, 111.923 327.777, 110.124 317.940, 108.325 308.103, 106.527 298.266, 104.728 288.429, 102.929 278.592, 101.130 268.755, 99.332 258.918, 97.533 249.081, 95.734 239.245, 93.935 234.179, 93.009 224.628, 95.973 215.077, 98.936 205.526, 101.900 195.976, 104.863 186.425, 107.826 176.874, 110.790 167.323, 113.753 157.772, 116.717 148.222, 119.680 138.671, 122.644 129.120, 125.607 119.569, 128.570 110.018, 131.534 100.467, 134.497 90.917, 137.461 81.366, 140.424 72.427, 143.198 73.609, 153.127 74.791, 163.057 75.972, 172.987 77.154, 182.917 78.335, 192.847 79.517, 202.777 80.698, 212.707 81.880, 222.637 83.061, 232.567 84.243, 242.497 85.424, 252.427 86.606, 262.357 87.788, 272.287 88.969, 282.217 90.151, 292.147 91.332, 302.077 92.514, 312.007 93.695, 321.937 94.877, 331.867 96.058, 341.797 97.240, 351.727 98.203, 359.821 107.131, 364.326 116.059, 368.831 124.987, 373.336 133.914, 377.841 142.842, 382.345 151.770, 386.850 160.698, 391.355 169.626, 395.860 178.554, 400.365 187.481, 404.870 196.409, 409.375 205.337, 413.879 214.265, 418.384 223.193, 422.889 232.121, 427.394 241.048, 431.899 249.976, 436.404 258.904, 440.909 267.832, 445.414 276.760, 449.918 282.383, 452.756 289.553, 445.785 296.724, 438.815 303.894, 431.845 311.065, 424.875 318.235, 417.905 325.406, 410.934 332.576, 403.964 339.747, 396.994 346.917, 390.024 354.088, 383.054 361.258, 376.083 368.429, 369.113 375.599, 362.143 382.770, 355.173 389.940, 348.202 397.111, 341.232 403.553, 334.970 404.639, 325.029 405.724, 315.088 406.810, 305.147 407.896, 295.206 408.982, 285.266 410.067, 275.325 411.153, 265.384 412.239, 255.443 413.324, 245.502 414.410, 235.561 415.496, 225.620 416.582, 215.679 417.667, 205.738 418.753, 195.798 419.839, 185.857 420.924, 175.916 422.010, 165.975 423.096, 156.034 424.182, 146.093 425.267, 136.152 426.146, 128.111 " fill="none" stroke="rgb(0, 0, 0)" stroke-linecap="butt" stroke-linejoin="round" stroke-opacity="1.0" stroke-width="3.0" />
            <path d=" M 72.427, 143.198 82.073, 145.835 91.719, 148.472 101.365, 151.110 111.011, 153.747 120.657, 156.384 130.303, 159.022 139.949, 161.659 149.595, 164.296 159.241, 166.934 168.887, 169.571 178.533, 172.208 188.179, 174.846 197.825, 177.483 207.471, 180.120 217.117, 182.758 226.763, 185.395 236.409, 188.032 246.055, 190.670 255.701, 193.307 265.347, 195.944 274.992, 198.582 284.638, 201.219 287.746, 202.069 " fill="none" stroke="rgb(0, 0, 0)" stroke-linecap="butt" stroke-linejoin="round" stroke-opacity="1.0" stroke-width="3.0" />
            <path d=" M 282.383, 452.756 282.597, 442.758 282.810, 432.760 283.024, 422.762 283.238, 412.765 283.452, 402.767 283.666, 392.769 283.880, 382.772 284.094, 372.774 284.308, 362.776 284.522, 352.779 284.735, 342.781 284.949, 332.783 285.163, 322.785 285.377, 312.788 285.591, 302.790 285.805, 292.792 286.019, 282.795 286.233, 272.797 286.447, 262.799 286.660, 252.801 286.874, 242.804 287.088, 232.806 287.302, 222.808 287.516, 212.811 287.746, 202.069 296.565, 197.356 305.385, 192.643 314.205, 187.930 323.025, 183.217 331.844, 178.504 340.664, 173.791 349.484, 169.078 358.303, 164.365 367.123, 159.651 375.943, 154.938 384.763, 150.225 393.582, 145.512 402.402, 140.799 411.222, 136.086 420.041, 131.373 426.146, 128.111 " fill="none" stroke="rgb(0, 0, 0)" stroke-linecap="butt" stroke-linejoin="round" stroke-opacity="1.0" stroke-width="3.0" />
        </g>
    </g>
</svg>
