<?xml version='1.0' encoding='ascii'?>
<svg xmlns="http://www.w3.org/2000/svg" height="512" version="1.1" width="512">
    <g id="View Layer_LineSet" inkscape:groupmode="lineset" inkscape:label="View Layer_LineSet" xmlns:inkscape="http://www.inkscape.org/namespaces/inkscape">
        <g id="strokes" inkscape:groupmode="layer" inkscape:label="strokes" xmlns:inkscape="http://www.inkscape.org/namespaces/inkscape">
            <path d=" M 422.452, 125.410 412.583, 123.799 402.713, 122.188 392.844, 120.578 382.974, 118.967 373.105, 117.356 363.236, 115.746 353.366, 114.135 343.497, 112.525 333.627, 110.914 323.758, 109.303 313.888, 107.693 304.019, 106.082 294.149, 104.471 284.280, 102.861 274.411, 101.250 264.541, 99.639 254.672, 98.029 244.802, 96.418 234.933, 94.807 226.001, 93.350 216.544, 96.601 207.088, 99.852 197.631, 103.103 188.174, 106.354 178.717, 109.606 169.261, 112.857 159.804, 116.108 150.347, 119.359 140.891, 122.610 131.434, 125.861 121.977, 129.113 112.520, 132.364 103.064, 135.615 93.607, 138.866 84.150, 142.117 74.693, 145.368 71.837, 146.350 73.025, 156.280 74.212, 166.209 75.400, 176.138 76.588, 186.067 77.775, 195.996 78.963, 205.926 80.151, 215.855 81.338, 225.784 82.526, 235.713 83.714, 245.643 84.901, 255.572 86.089, 265.501 87.277, 275.430 88.464, 285.359 89.652, 295.289 90.840, 305.218 92.028, 315.147 93.215, 325.076 94.403, 335.006 95.591, 344.935 96.778, 354.864 97.986, 364.960 107.126, 369.016 116.266, 373.073 125.406, 377.130 134.546, 381.187 143.687, 385.244 152.827, 389.301 161.967, 393.357 171.107, 397.414 180.247, 401.471 189.387, 405.528 198.528, 409.585 207.668, 413.641 216.808, 417.698 225.948, 421.755 235.088, 425.812 244.228, 429.869 253.368, 433.925 262.509, 437.982 271.649, 442.039 280.789, 446.096 289.929, 450.153 292.911, 451.476 299.558, 444.005 306.206, 436.535 312.853, 429.064 319.501, 421.593 326.148, 414.123 332.796, 406.652 339.443, 399.181 346.090, 391.711 352.738, 384.240 359.385, 376.769 366.033, 369.298 372.680, 361.828 379.328, 354.357 385.975, 346.886 392.623, 339.416 399.270, 331.945 400.580, 330.473 401.640, 320.529 402.701, 310.586 403.762, 300.642 404.822, 290.698 405.883, 280.755 406.943, 270.811 408.004, 260.868 409.065, 250.924 410.125, 240.980 411.186, 231.037 412.246, 221.093 413.307, 211.150 414.368, 201.206 415.428, 191.262 416.489, 181.319 417.549, 171.375 418.610, 161.432 419.671, 151.488 420.731, 141.544 421.792, 131.601 422.452, 125.410 " fill="none" stroke="rgb(0, 0, 0)" stroke-linecap="butt" stroke-linejoin="round" stroke-opacity="1.0" stroke-width="3.0" />
            <path d=" M 71.837, 146.350 81.560, 148.685 91.284, 151.020 101.008, 153.355 110.731, 155.690 120.455, 158.024 130.179, 160.359 139.902, 162.694 149.626, 165.029 159.349, 167.364 169.073, 169.699 178.797, 172.033 188.520, 174.368 198.244, 176.703 207.967, 179.038 217.691, 181.373 227.415, 183.707 237.138, 186.042 246.862, 188.377 256.585, 190.712 266.309, 193.047 276.033, 195.382 285.756, 197.716 295.480, 200.051 300.393, 201.231 " fill="none" stroke="rgb(0, 0, 0)" stroke-linecap="butt" stroke-linejoin="round" stroke-opacity="1.0" stroke-width="3.0" />
            <path d=" M 292.911, 451.476 293.210, 441.481 293.509, 431.485 293.807, 421.490 294.106, 411.494 294.405, 401.499 294.704, 391.503 295.003, 381.507 295.302, 371.512 295.601, 361.516 295.900, 351.521 296.198, 341.525 296.497, 331.530 296.796, 321.534 297.095, 311.539 297.394, 301.543 297.693, 291.548 297.992, 281.552 298.290, 271.557 298.589, 261.561 298.888, 251.566 299.187, 241.570 299.486, 231.574 299.785, 221.579 300.084, 211.583 300.393, 201.231 308.888, 195.954 317.382, 190.678 325.877, 185.401 334.371, 180.124 342.866, 174.848 351.360, 169.571 359.855, 164.294 368.349, 159.018 376.844, 153.741 385.338, 148.464 393.833, 143.188 402.327, 137.911 410.822, 132.634 419.316, 127.358 422.452, 125.410 " fill="none" stroke="rgb(0, 0, 0)" stroke-linecap="butt" stroke-linejoin="round" stroke-opacity="1.0" stroke-width="3.0" />
        </g>
    </g>
</svg>
