<?xml version='1.0' encoding='ascii'?>
<svg xmlns="http://www.w3.org/2000/svg" height="512" version="1.1" width="512">
    <g id="View Layer_LineSet" inkscape:groupmode="lineset" inkscape:label="View Layer_LineSet" xmlns:inkscape="http://www.inkscape.org/namespaces/inkscape">
        <g id="strokes" inkscape:groupmode="layer" inkscape:label="strokes" xmlns:inkscape="http://www.inkscape.org/namespaces/inkscape">
            <path d=" M 417.896, 122.540 407.996, 121.126 398.097, 119.712 388.197, 118.298 378.297, 116.885 368.398, 115.471 358.498, 114.057 348.599, 112.643 338.699, 111.230 328.800, 109.816 318.900, 108.402 309.001, 106.988 299.101, 105.575 289.201, 104.161 279.302, 102.747 269.402, 101.333 259.503, 99.920 249.603, 98.506 239.704, 97.092 229.804, 95.678 219.904, 94.265 217.033, 93.855 207.704, 97.456 198.375, 101.057 189.046, 104.658 179.717, 108.259 170.388, 111.860 161.059, 115.461 151.729, 119.061 142.400, 122.662 133.071, 126.263 123.742, 129.864 114.413, 133.465 105.084, 137.066 95.754, 140.667 86.425, 144.268 77.096, 147.869 71.887, 149.880 73.077, 159.809 74.267, 169.738 75.457, 179.667 76.647, 189.596 77.837, 199.525 79.027, 209.454 80.217, 219.382 81.407, 229.311 82.597, 239.240 83.787, 249.169 84.978, 259.098 86.168, 269.027 87.358, 278.956 88.548, 288.885 89.738, 298.814 90.928, 308.743 92.118, 318.672 93.308, 328.601 94.498, 338.530 95.688, 348.459 96.878, 358.388 98.068, 368.316 98.353, 370.690 107.691, 374.268 117.028, 377.846 126.366, 381.424 135.704, 385.002 145.042, 388.581 154.380, 392.159 163.718, 395.737 173.056, 399.315 182.394, 402.893 191.732, 406.471 201.070, 410.050 210.408, 413.628 219.746, 417.206 229.083, 420.784 238.421, 424.362 247.759, 427.941 257.097, 431.519 266.435, 435.097 275.773, 438.675 285.111, 442.253 294.449, 445.831 304.280, 449.599 310.265, 441.587 316.250, 433.576 322.235, 425.565 328.220, 417.554 334.206, 409.543 340.191, 401.532 346.176, 393.521 352.161, 385.510 358.146, 377.499 364.131, 369.487 370.116, 361.476 376.102, 353.465 382.087, 345.454 388.072, 337.443 394.057, 329.432 396.860, 325.680 397.890, 315.733 398.920, 305.786 399.950, 295.839 400.980, 285.892 402.010, 275.946 403.040, 265.999 404.070, 256.052 405.100, 246.105 406.130, 236.158 407.160, 226.212 408.190, 216.265 409.220, 206.318 410.250, 196.371 411.280, 186.424 412.310, 176.477 413.340, 166.531 414.370, 156.584 415.400, 146.637 416.430, 136.690 417.460, 126.743 417.896, 122.540 " fill="none" stroke="rgb(0, 0, 0)" stroke-linecap="butt" stroke-linejoin="round" stroke-opacity="1.0" stroke-width="3.0" />
            <path d=" M 71.887, 149.880 81.679, 151.907 91.472, 153.934 101.264, 155.961 111.056, 157.988 120.849, 160.015 130.641, 162.042 140.434, 164.069 150.226, 166.096 160.019, 168.123 169.811, 170.150 179.603, 172.177 189.396, 174.204 199.188, 176.231 208.981, 178.258 218.773, 180.285 228.565, 182.312 238.358, 184.339 248.150, 186.366 257.943, 188.393 267.735, 190.420 277.527, 192.447 287.320, 194.474 297.112, 196.501 306.905, 198.528 314.026, 200.003 " fill="none" stroke="rgb(0, 0, 0)" stroke-linecap="butt" stroke-linejoin="round" stroke-opacity="1.0" stroke-width="3.0" />
            <path d=" M 304.280, 449.599 304.670, 439.606 305.060, 429.614 305.450, 419.621 305.841, 409.629 306.231, 399.637 306.621, 389.644 307.011, 379.652 307.401, 369.660 307.792, 359.667 308.182, 349.675 308.572, 339.682 308.962, 329.690 309.352, 319.698 309.743, 309.705 310.133, 299.713 310.523, 289.720 310.913, 279.728 311.303, 269.736 311.694, 259.743 312.084, 249.751 312.474, 239.759 312.864, 229.766 313.254, 219.774 313.645, 209.781 314.026, 200.003 322.043, 194.024 330.059, 188.046 338.075, 182.068 346.091, 176.089 354.108, 170.111 362.124, 164.133 370.140, 158.155 378.156, 152.176 386.173, 146.198 394.189, 140.220 402.205, 134.241 410.221, 128.263 417.896, 122.540 " fill="none" stroke="rgb(0, 0, 0)" stroke-linecap="butt" stroke-linejoin="round" stroke-opacity="1.0" stroke-width="3.0" />
        </g>
    </g>
</svg>
