<?xml version='1.0' encoding='ascii'?>
<svg xmlns="http://www.w3.org/2000/svg" height="512" version="1.1" width="512">
    <g id="View Layer_LineSet" inkscape:groupmode="lineset" inkscape:label="View Layer_LineSet" xmlns:inkscape="http://www.inkscape.org/namespaces/inkscape">
        <g id="strokes" inkscape:groupmode="layer" inkscape:label="strokes" xmlns:inkscape="http://www.inkscape.org/namespaces/inkscape">
            <path d=" M 412.439, 119.572 402.513, 118.360 392.587, 117.149 382.660, 115.938 372.734, 114.726 362.808, 113.515 352.881, 112.304 342.955, 111.093 333.029, 109.881 323.102, 108.670 313.176, 107.459 303.249, 106.247 293.323, 105.036 283.397, 103.825 273.470, 102.613 263.544, 101.402 253.618, 100.191 243.691, 98.979 233.765, 97.768 223.838, 96.557 213.912, 95.346 207.419, 94.553 198.265, 98.578 189.110, 102.603 179.956, 106.628 170.802, 110.653 161.648, 114.678 152.493, 118.703 143.339, 122.728 134.185, 126.753 125.031, 130.778 115.877, 134.803 106.722, 138.828 97.568, 142.853 88.414, 146.878 79.260, 150.903 72.804, 153.741 73.991, 163.670 75.178, 173.600 76.365, 183.529 77.552, 193.458 78.739, 203.388 79.927, 213.317 81.114, 223.246 82.301, 233.175 83.488, 243.105 84.675, 253.034 85.862, 262.963 87.050, 272.893 88.237, 282.822 89.424, 292.751 90.611, 302.680 91.798, 312.610 92.985, 322.539 94.172, 332.468 95.360, 342.398 96.547, 352.327 97.734, 362.256 98.921, 372.185 99.489, 376.932 109.003, 380.009 118.518, 383.087 128.032, 386.165 137.547, 389.243 147.061, 392.321 156.576, 395.399 166.090, 398.477 175.605, 401.555 185.119, 404.633 194.634, 407.711 204.148, 410.789 213.663, 413.867 223.177, 416.945 232.692, 420.023 242.206, 423.101 251.721, 426.179 261.236, 429.257 270.750, 432.335 280.265, 435.413 289.779, 438.491 299.294, 441.568 308.808, 444.646 316.203, 447.039 321.365, 438.474 326.528, 429.910 331.690, 421.345 336.852, 412.781 342.015, 404.216 347.177, 395.652 352.339, 387.087 357.502, 378.523 362.664, 369.958 367.826, 361.394 372.989, 352.830 378.151, 344.265 383.314, 335.701 388.476, 327.136 392.352, 320.706 393.345, 310.756 394.339, 300.805 395.333, 290.855 396.327, 280.904 397.321, 270.954 398.314, 261.003 399.308, 251.053 400.302, 241.102 401.296, 231.152 402.289, 221.201 403.283, 211.251 404.277, 201.300 405.271, 191.350 406.265, 181.399 407.258, 171.449 408.252, 161.498 409.246, 151.548 410.240, 141.597 411.233, 131.647 412.227, 121.696 412.439, 119.572 " fill="none" stroke="rgb(0, 0, 0)" stroke-linecap="butt" stroke-linejoin="round" stroke-opacity="1.0" stroke-width="3.0" />
            <path d=" M 72.804, 153.741 82.655, 155.461 92.506, 157.180 102.357, 158.899 112.208, 160.618 122.059, 162.338 131.910, 164.057 141.761, 165.776 151.612, 167.496 161.463, 169.215 171.314, 170.934 181.166, 172.654 191.017, 174.373 200.868, 176.092 210.719, 177.811 220.570, 179.531 230.421, 181.250 240.272, 182.969 250.123, 184.689 259.974, 186.408 269.825, 188.127 279.677, 189.847 289.528, 191.566 299.379, 193.285 309.230, 195.005 319.081, 196.724 328.288, 198.331 " fill="none" stroke="rgb(0, 0, 0)" stroke-linecap="butt" stroke-linejoin="round" stroke-opacity="1.0" stroke-width="3.0" />
            <path d=" M 316.203, 447.039 316.688, 437.050 317.174, 427.062 317.659, 417.074 318.144, 407.086 318.630, 397.098 319.115, 387.109 319.600, 377.121 320.086, 367.133 320.571, 357.145 321.056, 347.156 321.542, 337.168 322.027, 327.180 322.512, 317.192 322.998, 307.204 323.483, 297.215 323.968, 287.227 324.454, 277.239 324.939, 267.251 325.425, 257.262 325.910, 247.274 326.395, 237.286 326.881, 227.298 327.366, 217.310 327.851, 207.321 328.288, 198.331 335.589, 191.498 342.890, 184.664 350.192, 177.831 357.493, 170.998 364.794, 164.164 372.095, 157.331 379.396, 150.498 386.697, 143.665 393.998, 136.831 401.299, 129.998 408.600, 123.165 412.439, 119.572 " fill="none" stroke="rgb(0, 0, 0)" stroke-linecap="butt" stroke-linejoin="round" stroke-opacity="1.0" stroke-width="3.0" />
        </g>
    </g>
</svg>
