<?xml version='1.0' encoding='ascii'?>
<svg xmlns="http://www.w3.org/2000/svg" height="512" version="1.1" width="512">
    <g id="View Layer_LineSet" inkscape:groupmode="lineset" inkscape:label="View Layer_LineSet" xmlns:inkscape="http://www.inkscape.org/namespaces/inkscape">
        <g id="strokes" inkscape:groupmode="layer" inkscape:label="strokes" xmlns:inkscape="http://www.inkscape.org/namespaces/inkscape">
            <path d=" M 406.078, 116.574 396.128, 115.569 386.179, 114.563 376.230, 113.557 366.280, 112.551 356.331, 111.546 346.382, 110.540 336.433, 109.534 326.483, 108.528 316.534, 107.523 306.585, 106.517 296.635, 105.511 286.686, 104.505 276.737, 103.500 266.788, 102.494 256.838, 101.488 246.889, 100.482 236.940, 99.476 226.990, 98.471 217.041, 97.465 207.092, 96.459 197.307, 95.470 188.397, 100.009 179.487, 104.549 170.576, 109.088 161.666, 113.627 152.756, 118.166 143.845, 122.706 134.935, 127.245 126.024, 131.784 117.114, 136.323 108.204, 140.863 99.293, 145.402 90.383, 149.941 81.472, 154.480 74.802, 157.879 75.979, 167.809 77.157, 177.740 78.334, 187.670 79.512, 197.601 80.689, 207.531 81.867, 217.461 83.044, 227.392 84.222, 237.322 85.399, 247.253 86.577, 257.183 87.754, 267.114 88.932, 277.044 90.109, 286.974 91.287, 296.905 92.465, 306.835 93.642, 316.766 94.820, 326.696 95.997, 336.627 97.175, 346.557 98.352, 356.487 99.530, 366.418 100.707, 376.348 101.566, 383.589 111.232, 386.153 120.897, 388.716 130.563, 391.280 140.229, 393.843 149.895, 396.407 159.561, 398.970 169.227, 401.534 178.892, 404.097 188.558, 406.661 198.224, 409.224 207.890, 411.788 217.556, 414.351 227.222, 416.915 236.887, 419.479 246.553, 422.042 256.219, 424.606 265.885, 427.169 275.551, 429.733 285.217, 432.296 294.882, 434.860 304.548, 437.423 314.214, 439.987 323.880, 442.550 328.373, 443.742 332.537, 434.650 336.702, 425.559 340.866, 416.467 345.031, 407.375 349.195, 398.284 353.360, 389.192 357.524, 380.101 361.689, 371.009 365.853, 361.917 370.018, 352.826 374.182, 343.734 378.346, 334.643 382.511, 325.551 387.039, 315.666 387.991, 305.711 388.943, 295.757 389.895, 285.802 390.847, 275.847 391.799, 265.893 392.751, 255.938 393.703, 245.984 394.654, 236.029 395.606, 226.074 396.558, 216.120 397.510, 206.165 398.462, 196.211 399.414, 186.256 400.366, 176.301 401.318, 166.347 402.270, 156.392 403.222, 146.438 404.174, 136.483 405.126, 126.529 406.078, 116.574 " fill="none" stroke="rgb(0, 0, 0)" stroke-linecap="butt" stroke-linejoin="round" stroke-opacity="1.0" stroke-width="3.0" />
            <path d=" M 74.802, 157.879 84.701, 159.294 94.600, 160.709 104.500, 162.123 114.399, 163.538 124.299, 164.953 134.198, 166.368 144.097, 167.783 153.997, 169.198 163.896, 170.613 173.796, 172.028 183.695, 173.443 193.594, 174.858 203.494, 176.272 213.393, 177.687 223.293, 179.102 233.192, 180.517 243.091, 181.932 252.991, 183.347 262.890, 184.762 272.790, 186.177 282.689, 187.592 292.588, 189.006 302.488, 190.421 312.387, 191.836 322.287, 193.251 332.186, 194.666 342.796, 196.182 " fill="none" stroke="rgb(0, 0, 0)" stroke-linecap="butt" stroke-linejoin="round" stroke-opacity="1.0" stroke-width="3.0" />
            <path d=" M 328.373, 443.742 328.954, 433.759 329.536, 423.776 330.118, 413.793 330.699, 403.810 331.281, 393.826 331.862, 383.843 332.444, 373.860 333.026, 363.877 333.607, 353.894 334.189, 343.911 334.771, 333.928 335.352, 323.945 335.934, 313.962 336.515, 303.979 337.097, 293.996 337.679, 284.013 338.260, 274.030 338.842, 264.047 339.424, 254.063 340.005, 244.080 340.587, 234.097 341.168, 224.114 341.750, 214.131 342.332, 204.148 342.796, 196.182 349.018, 188.354 355.241, 180.526 361.464, 172.698 367.686, 164.870 373.909, 157.042 380.132, 149.214 386.354, 141.386 392.577, 133.558 398.800, 125.730 405.022, 117.902 406.078, 116.574 " fill="none" stroke="rgb(0, 0, 0)" stroke-linecap="butt" stroke-linejoin="round" stroke-opacity="1.0" stroke-width="3.0" />
        </g>
    </g>
</svg>
