<?xml version='1.0' encoding='ascii'?>
<svg xmlns="http://www.w3.org/2000/svg" height="512" version="1.1" width="512">
    <g id="View Layer_LineSet" inkscape:groupmode="lineset" inkscape:label="View Layer_LineSet" xmlns:inkscape="http://www.inkscape.org/namespaces/inkscape">
        <g id="strokes" inkscape:groupmode="layer" inkscape:label="strokes" xmlns:inkscape="http://www.inkscape.org/namespaces/inkscape">
            <path d=" M 398.837, 113.612 388.869, 112.813 378.901, 112.014 368.933, 111.216 358.965, 110.417 348.997, 109.618 339.029, 108.819 329.061, 108.020 319.093, 107.222 309.125, 106.423 299.157, 105.624 289.189, 104.825 279.221, 104.026 269.253, 103.228 259.285, 102.429 249.317, 101.630 239.349, 100.831 229.381, 100.033 219.413, 99.234 209.445, 98.435 199.477, 97.636 189.509, 96.837 186.856, 96.625 178.292, 101.789 169.729, 106.953 161.165, 112.117 152.602, 117.281 144.039, 122.445 135.475, 127.609 126.912, 132.773 118.348, 137.937 109.785, 143.102 101.222, 148.266 92.658, 153.430 84.095, 158.594 78.072, 162.226 79.232, 172.158 80.391, 182.091 81.551, 192.023 82.711, 201.956 83.871, 211.888 85.031, 221.821 86.191, 231.753 87.350, 241.686 88.510, 251.618 89.670, 261.551 90.830, 271.484 91.990, 281.416 93.149, 291.349 94.309, 301.281 95.469, 311.214 96.629, 321.146 97.789, 331.079 98.949, 341.011 100.108, 350.944 101.268, 360.876 102.428, 370.809 103.588, 380.741 104.733, 390.550 114.523, 392.590 124.312, 394.631 134.102, 396.671 143.891, 398.712 153.681, 400.753 163.471, 402.793 173.260, 404.834 183.050, 406.875 192.839, 408.915 202.629, 410.956 212.418, 412.996 222.208, 415.037 231.998, 417.078 241.787, 419.118 251.577, 421.159 261.366, 423.200 271.156, 425.240 280.946, 427.281 290.735, 429.321 300.525, 431.362 310.314, 433.403 320.104, 435.443 329.893, 437.484 340.475, 439.690 343.467, 430.148 346.459, 420.606 349.452, 411.064 352.444, 401.522 355.436, 391.980 358.429, 382.439 361.421, 372.897 364.413, 363.355 367.405, 353.813 370.398, 344.271 373.390, 334.730 376.382, 325.188 379.375, 315.646 380.937, 310.666 381.841, 300.707 382.746, 290.748 383.651, 280.789 384.555, 270.830 385.460, 260.871 386.365, 250.912 387.269, 240.953 388.174, 230.994 389.079, 221.035 389.984, 211.076 390.888, 201.117 391.793, 191.158 392.698, 181.199 393.602, 171.240 394.507, 161.281 395.412, 151.322 396.316, 141.363 397.221, 131.404 398.126, 121.445 398.837, 113.612 " fill="none" stroke="rgb(0, 0, 0)" stroke-linecap="butt" stroke-linejoin="round" stroke-opacity="1.0" stroke-width="3.0" />
            <path d=" M 78.072, 162.226 88.009, 163.341 97.947, 164.457 107.885, 165.572 117.822, 166.687 127.760, 167.803 137.697, 168.918 147.635, 170.033 157.573, 171.149 167.510, 172.264 177.448, 173.379 187.385, 174.495 197.323, 175.610 207.261, 176.725 217.198, 177.841 227.136, 178.956 237.073, 180.071 247.011, 181.187 256.949, 182.302 266.886, 183.417 276.824, 184.533 286.762, 185.648 296.699, 186.763 306.637, 187.879 316.574, 188.994 326.512, 190.109 336.450, 191.225 346.387, 192.340 357.158, 193.549 " fill="none" stroke="rgb(0, 0, 0)" stroke-linecap="butt" stroke-linejoin="round" stroke-opacity="1.0" stroke-width="3.0" />
            <path d=" M 340.475, 439.690 341.151, 429.712 341.827, 419.735 342.503, 409.758 343.180, 399.781 343.856, 389.804 344.532, 379.827 345.208, 369.850 345.885, 359.873 346.561, 349.896 347.237, 339.918 347.913, 329.941 348.590, 319.964 349.266, 309.987 349.942, 300.010 350.619, 290.033 351.295, 280.056 351.971, 270.079 352.647, 260.102 353.324, 250.124 354.000, 240.147 354.676, 230.170 355.352, 220.193 356.029, 210.216 356.705, 200.239 357.158, 193.549 361.782, 184.682 366.405, 175.815 371.028, 166.948 375.652, 158.080 380.275, 149.213 384.898, 140.346 389.521, 131.479 394.145, 122.612 398.837, 113.612 " fill="none" stroke="rgb(0, 0, 0)" stroke-linecap="butt" stroke-linejoin="round" stroke-opacity="1.0" stroke-width="3.0" />
        </g>
    </g>
</svg>
