<?xml version='1.0' encoding='ascii'?>
<svg xmlns="http://www.w3.org/2000/svg" height="512" version="1.1" width="512">
    <g id="View Layer_LineSet" inkscape:groupmode="lineset" inkscape:label="View Layer_LineSet" xmlns:inkscape="http://www.inkscape.org/namespaces/inkscape">
        <g id="strokes" inkscape:groupmode="layer" inkscape:label="strokes" xmlns:inkscape="http://www.inkscape.org/namespaces/inkscape">
            <path d=" M 390.778, 110.742 380.795, 110.151 370.813, 109.559 360.830, 108.968 350.848, 108.376 340.865, 107.785 330.883, 107.193 320.900, 106.602 310.918, 106.010 300.935, 105.419 290.953, 104.828 280.970, 104.236 270.988, 103.645 261.005, 103.053 251.023, 102.462 241.040, 101.870 231.058, 101.279 221.075, 100.688 211.093, 100.096 201.110, 99.505 191.128, 98.913 181.145, 98.322 176.224, 98.030 168.166, 103.952 160.107, 109.873 152.049, 115.795 143.991, 121.716 135.932, 127.637 127.874, 133.559 119.816, 139.480 111.758, 145.402 103.699, 151.323 95.641, 157.245 87.583, 163.166 82.768, 166.704 83.901, 176.640 85.034, 186.576 86.166, 196.511 87.299, 206.447 88.432, 216.383 89.565, 226.318 90.698, 236.254 91.831, 246.189 92.964, 256.125 94.097, 266.061 95.230, 275.996 96.362, 285.932 97.495, 295.867 98.628, 305.803 99.761, 315.739 100.894, 325.674 102.027, 335.610 103.160, 345.546 104.293, 355.481 105.426, 365.417 106.558, 375.352 107.691, 385.288 108.824, 395.224 109.105, 397.684 118.990, 399.197 128.874, 400.711 138.759, 402.224 148.644, 403.737 158.529, 405.251 168.414, 406.764 178.299, 408.277 188.183, 409.791 198.068, 411.304 207.953, 412.818 217.838, 414.331 227.723, 415.844 237.607, 417.358 247.492, 418.871 257.377, 420.384 267.262, 421.898 277.147, 423.411 287.032, 424.924 296.916, 426.438 306.801, 427.951 316.686, 429.464 326.571, 430.978 336.456, 432.491 346.341, 434.004 352.201, 434.902 353.872, 425.042 355.544, 415.183 357.215, 405.324 358.887, 395.464 360.559, 385.605 362.230, 375.746 363.902, 365.886 365.573, 356.027 367.245, 346.168 368.916, 336.309 370.588, 326.449 372.260, 316.590 374.088, 305.806 374.940, 295.842 375.793, 285.879 376.645, 275.915 377.498, 265.951 378.350, 255.988 379.203, 246.024 380.055, 236.061 380.908, 226.097 381.760, 216.133 382.613, 206.170 383.465, 196.206 384.318, 186.243 385.170, 176.279 386.023, 166.315 386.875, 156.352 387.728, 146.388 388.580, 136.425 389.433, 126.461 390.285, 116.497 390.778, 110.742 " fill="none" stroke="rgb(0, 0, 0)" stroke-linecap="butt" stroke-linejoin="round" stroke-opacity="1.0" stroke-width="3.0" />
            <path d=" M 82.768, 166.704 92.734, 167.525 102.700, 168.346 112.666, 169.167 122.633, 169.988 132.599, 170.809 142.565, 171.630 152.531, 172.451 162.498, 173.272 172.464, 174.093 182.430, 174.914 192.396, 175.735 202.363, 176.556 212.329, 177.377 222.295, 178.198 232.261, 179.019 242.228, 179.840 252.194, 180.661 262.160, 181.482 272.126, 182.303 282.093, 183.124 292.059, 183.945 302.025, 184.766 311.991, 185.587 321.958, 186.408 331.924, 187.228 341.890, 188.049 351.856, 188.870 361.823, 189.691 370.998, 190.447 " fill="none" stroke="rgb(0, 0, 0)" stroke-linecap="butt" stroke-linejoin="round" stroke-opacity="1.0" stroke-width="3.0" />
            <path d=" M 352.201, 434.902 352.967, 424.931 353.734, 414.960 354.501, 404.990 355.267, 395.019 356.034, 385.049 356.801, 375.078 357.567, 365.108 358.334, 355.137 359.101, 345.166 359.867, 335.196 360.634, 325.225 361.401, 315.255 362.168, 305.284 362.934, 295.314 363.701, 285.343 364.468, 275.372 365.234, 265.402 366.001, 255.431 366.768, 245.461 367.534, 235.490 368.301, 225.520 369.068, 215.549 369.834, 205.578 370.601, 195.608 370.998, 190.447 373.406, 180.742 375.815, 171.036 378.224, 161.330 380.632, 151.625 383.041, 141.919 385.449, 132.214 387.858, 122.508 390.267, 112.802 390.778, 110.742 " fill="none" stroke="rgb(0, 0, 0)" stroke-linecap="butt" stroke-linejoin="round" stroke-opacity="1.0" stroke-width="3.0" />
        </g>
    </g>
</svg>
