<?xml version='1.0' encoding='ascii'?>
<svg xmlns="http://www.w3.org/2000/svg" height="512" version="1.1" width="512">
    <g id="View Layer_LineSet" inkscape:groupmode="lineset" inkscape:label="View Layer_LineSet" xmlns:inkscape="http://www.inkscape.org/namespaces/inkscape">
        <g id="strokes" inkscape:groupmode="layer" inkscape:label="strokes" xmlns:inkscape="http://www.inkscape.org/namespaces/inkscape">
            <path d=" M 381.986, 108.015 371.994, 107.631 362.001, 107.247 352.008, 106.862 342.016, 106.478 332.023, 106.094 322.031, 105.709 312.038, 105.325 302.045, 104.941 292.053, 104.556 282.060, 104.172 272.068, 103.787 262.075, 103.403 252.082, 103.019 242.090, 102.634 232.097, 102.250 222.104, 101.866 212.112, 101.481 202.119, 101.097 192.127, 100.713 182.134, 100.328 172.141, 99.944 165.574, 99.691 158.267, 106.518 150.959, 113.344 143.651, 120.170 136.343, 126.996 129.036, 133.822 121.728, 140.648 114.420, 147.475 107.112, 154.301 99.805, 161.127 92.497, 167.953 88.992, 171.227 90.088, 181.167 91.184, 191.106 92.280, 201.046 93.376, 210.986 94.472, 220.926 95.568, 230.865 96.663, 240.805 97.759, 250.745 98.855, 260.685 99.951, 270.624 101.047, 280.564 102.143, 290.504 103.239, 300.444 104.335, 310.383 105.431, 320.323 106.527, 330.263 107.623, 340.203 108.718, 350.143 109.814, 360.082 110.910, 370.022 112.006, 379.962 113.102, 389.902 114.198, 399.841 114.750, 404.851 124.702, 405.836 134.653, 406.820 144.605, 407.804 154.556, 408.789 164.507, 409.773 174.459, 410.758 184.410, 411.742 194.362, 412.727 204.313, 413.711 214.265, 414.696 224.216, 415.680 234.167, 416.665 244.119, 417.649 254.070, 418.633 264.022, 419.618 273.973, 420.602 283.924, 421.587 293.876, 422.571 303.827, 423.556 313.779, 424.540 323.730, 425.525 333.682, 426.509 343.633, 427.493 353.584, 428.478 363.267, 429.436 364.118, 419.472 364.968, 409.508 365.819, 399.545 366.670, 389.581 367.520, 379.617 368.371, 369.653 369.221, 359.689 370.072, 349.726 370.922, 339.762 371.773, 329.798 372.624, 319.834 373.474, 309.871 374.325, 299.907 375.175, 289.943 376.026, 279.979 376.876, 270.016 377.727, 260.052 378.578, 250.088 379.428, 240.124 380.279, 230.161 381.129, 220.197 381.980, 210.233 382.831, 200.269 383.681, 190.306 383.970, 186.920 383.719, 176.923 383.467, 166.926 383.216, 156.929 382.965, 146.932 382.713, 136.936 382.462, 126.939 382.211, 116.942 381.986, 108.015 " fill="none" stroke="rgb(0, 0, 0)" stroke-linecap="butt" stroke-linejoin="round" stroke-opacity="1.0" stroke-width="3.0" />
            <path d=" M 88.992, 171.227 98.978, 171.758 108.964, 172.289 118.950, 172.821 128.936, 173.352 138.922, 173.883 148.907, 174.414 158.893, 174.946 168.879, 175.477 178.865, 176.008 188.851, 176.539 198.837, 177.071 208.823, 177.602 218.809, 178.133 228.794, 178.664 238.780, 179.196 248.766, 179.727 258.752, 180.258 268.738, 180.789 278.724, 181.321 288.710, 181.852 298.696, 182.383 308.681, 182.914 318.667, 183.446 328.653, 183.977 338.639, 184.508 348.625, 185.039 358.611, 185.571 368.597, 186.102 378.583, 186.633 383.970, 186.920 " fill="none" stroke="rgb(0, 0, 0)" stroke-linecap="butt" stroke-linejoin="round" stroke-opacity="1.0" stroke-width="3.0" />
        </g>
    </g>
</svg>
