<?xml version='1.0' encoding='ascii'?>
<svg xmlns="http://www.w3.org/2000/svg" height="512" version="1.1" width="512">
    <g id="View Layer_LineSet" inkscape:groupmode="lineset" inkscape:label="View Layer_LineSet" xmlns:inkscape="http://www.inkscape.org/namespaces/inkscape">
        <g id="strokes" inkscape:groupmode="layer" inkscape:label="strokes" xmlns:inkscape="http://www.inkscape.org/namespaces/inkscape">
            <path d=" M 372.575, 105.474 362.577, 105.296 352.578, 105.118 342.580, 104.940 332.581, 104.762 322.583, 104.585 312.585, 104.407 302.586, 104.229 292.588, 104.051 282.589, 103.873 272.591, 103.696 262.592, 103.518 252.594, 103.340 242.596, 103.162 232.597, 102.984 222.599, 102.807 212.600, 102.629 202.602, 102.451 192.603, 102.273 182.605, 102.095 172.607, 101.918 162.608, 101.740 155.069, 101.606 148.886, 109.465 142.703, 117.325 136.520, 125.185 130.338, 133.044 124.155, 140.904 117.972, 148.764 111.790, 156.623 105.607, 164.483 99.424, 172.342 96.784, 175.699 97.833, 185.643 98.881, 195.588 99.929, 205.533 100.978, 215.478 102.026, 225.423 103.075, 235.368 104.123, 245.313 105.171, 255.258 106.220, 265.203 107.268, 275.147 108.317, 285.092 109.365, 295.037 110.413, 304.982 111.462, 314.927 112.510, 324.872 113.559, 334.817 114.607, 344.762 115.655, 354.707 116.704, 364.651 117.752, 374.596 118.801, 384.541 119.849, 394.486 120.897, 404.431 121.685, 411.902 131.675, 412.357 141.664, 412.813 151.654, 413.269 161.643, 413.724 171.633, 414.180 181.623, 414.636 191.612, 415.091 201.602, 415.547 211.592, 416.003 221.581, 416.458 231.571, 416.914 241.560, 417.370 251.550, 417.825 261.540, 418.281 271.529, 418.737 281.519, 419.192 291.508, 419.648 301.498, 420.104 311.488, 420.559 321.477, 421.015 331.467, 421.471 341.456, 421.926 351.446, 422.382 361.436, 422.838 373.430, 423.385 374.356, 413.428 375.282, 403.471 376.209, 393.514 377.135, 383.557 378.061, 373.600 378.987, 363.643 379.913, 353.686 380.839, 343.729 381.765, 333.772 382.691, 323.815 383.617, 313.858 384.543, 303.901 385.469, 293.944 386.395, 283.986 387.322, 274.029 388.248, 264.072 389.174, 254.115 390.100, 244.158 391.026, 234.201 391.952, 224.244 392.878, 214.287 393.804, 204.330 394.730, 194.373 395.785, 183.031 392.918, 173.451 390.051, 163.871 387.184, 154.291 384.317, 144.710 381.450, 135.130 378.583, 125.550 375.716, 115.970 372.849, 106.390 372.575, 105.474 " fill="none" stroke="rgb(0, 0, 0)" stroke-linecap="butt" stroke-linejoin="round" stroke-opacity="1.0" stroke-width="3.0" />
            <path d=" M 96.784, 175.699 106.781, 175.944 116.778, 176.189 126.775, 176.434 136.772, 176.679 146.769, 176.924 156.766, 177.169 166.763, 177.415 176.760, 177.660 186.757, 177.905 196.754, 178.150 206.751, 178.395 216.748, 178.641 226.745, 178.886 236.742, 179.131 246.739, 179.376 256.736, 179.621 266.733, 179.866 276.730, 180.111 286.727, 180.357 296.724, 180.602 306.721, 180.847 316.718, 181.092 326.715, 181.337 336.712, 181.582 346.709, 181.828 356.706, 182.073 366.703, 182.318 376.700, 182.563 386.697, 182.808 395.785, 183.031 " fill="none" stroke="rgb(0, 0, 0)" stroke-linecap="butt" stroke-linejoin="round" stroke-opacity="1.0" stroke-width="3.0" />
        </g>
    </g>
</svg>
