<?xml version='1.0' encoding='ascii'?>
<svg xmlns="http://www.w3.org/2000/svg" height="512" version="1.1" width="512">
    <g id="View Layer_LineSet" inkscape:groupmode="lineset" inkscape:label="View Layer_LineSet" xmlns:inkscape="http://www.inkscape.org/namespaces/inkscape">
        <g id="strokes" inkscape:groupmode="layer" inkscape:label="strokes" xmlns:inkscape="http://www.inkscape.org/namespaces/inkscape">
            <path d=" M 362.676, 103.150 352.676, 103.178 342.677, 103.206 332.677, 103.234 322.677, 103.262 312.677, 103.290 302.677, 103.318 292.677, 103.346 282.677, 103.374 272.677, 103.402 262.677, 103.430 252.677, 103.458 242.677, 103.487 232.677, 103.515 222.677, 103.543 212.677, 103.571 202.677, 103.599 192.677, 103.627 182.677, 103.655 172.677, 103.683 162.677, 103.711 152.677, 103.739 144.863, 103.761 140.333, 112.676 135.802, 121.591 131.272, 130.506 126.742, 139.421 122.212, 148.336 117.681, 157.251 113.151, 166.166 108.621, 175.081 106.109, 180.023 107.100, 189.974 108.090, 199.925 109.081, 209.875 110.071, 219.826 111.061, 229.777 112.052, 239.728 113.042, 249.679 114.033, 259.630 115.023, 269.580 116.014, 279.531 117.004, 289.482 117.994, 299.433 118.985, 309.384 119.975, 319.335 120.966, 329.285 121.956, 339.236 122.947, 349.187 123.937, 359.138 124.927, 369.089 125.918, 379.040 126.908, 388.990 127.899, 398.941 128.889, 408.892 129.864, 418.685 139.864, 418.614 149.863, 418.542 159.863, 418.470 169.863, 418.398 179.863, 418.326 189.862, 418.254 199.862, 418.182 209.862, 418.110 219.862, 418.038 229.861, 417.966 239.861, 417.895 249.861, 417.823 259.860, 417.751 269.860, 417.679 279.860, 417.607 289.860, 417.535 299.859, 417.463 309.859, 417.391 319.859, 417.319 329.859, 417.248 339.858, 417.176 349.858, 417.104 359.858, 417.032 369.858, 416.960 379.857, 416.888 382.498, 416.869 383.490, 406.918 384.482, 396.968 385.474, 387.017 386.466, 377.066 387.458, 367.116 388.449, 357.165 389.441, 347.214 390.433, 337.264 391.425, 327.313 392.417, 317.362 393.409, 307.412 394.400, 297.461 395.392, 287.510 396.384, 277.559 397.376, 267.609 398.368, 257.658 399.360, 247.707 400.351, 237.757 401.343, 227.806 402.335, 217.855 403.327, 207.905 404.319, 197.954 405.311, 188.003 406.222, 178.863 401.236, 170.194 396.251, 161.526 391.265, 152.857 386.279, 144.189 381.294, 135.520 376.308, 126.852 371.323, 118.183 366.337, 109.515 362.676, 103.150 " fill="none" stroke="rgb(0, 0, 0)" stroke-linecap="butt" stroke-linejoin="round" stroke-opacity="1.0" stroke-width="3.0" />
            <path d=" M 106.109, 180.023 116.109, 179.984 126.109, 179.946 136.109, 179.907 146.109, 179.868 156.109, 179.830 166.109, 179.791 176.109, 179.752 186.109, 179.714 196.109, 179.675 206.109, 179.636 216.108, 179.598 226.108, 179.559 236.108, 179.521 246.108, 179.482 256.108, 179.443 266.108, 179.405 276.108, 179.366 286.108, 179.327 296.108, 179.289 306.108, 179.250 316.108, 179.211 326.108, 179.173 336.108, 179.134 346.107, 179.095 356.107, 179.057 366.107, 179.018 376.107, 178.979 386.107, 178.941 396.107, 178.902 406.222, 178.863 " fill="none" stroke="rgb(0, 0, 0)" stroke-linecap="butt" stroke-linejoin="round" stroke-opacity="1.0" stroke-width="3.0" />
        </g>
    </g>
</svg>
