<?xml version='1.0' encoding='ascii'?>
<svg xmlns="http://www.w3.org/2000/svg" height="512" version="1.1" width="512">
    <g id="View Layer_LineSet" inkscape:groupmode="lineset" inkscape:label="View Layer_LineSet" xmlns:inkscape="http://www.inkscape.org/namespaces/inkscape">
        <g id="strokes" inkscape:groupmode="layer" inkscape:label="strokes" xmlns:inkscape="http://www.inkscape.org/namespaces/inkscape">
            <path d=" M 352.438, 101.068 342.440, 101.301 332.443, 101.534 322.446, 101.767 312.449, 102.000 302.451, 102.233 292.454, 102.466 282.457, 102.699 272.459, 102.933 262.462, 103.166 252.465, 103.399 242.468, 103.632 232.470, 103.865 222.473, 104.098 212.476, 104.331 202.478, 104.565 192.481, 104.798 182.484, 105.031 172.487, 105.264 162.489, 105.497 152.492, 105.730 142.495, 105.963 135.105, 106.136 132.826, 115.872 130.547, 125.609 128.268, 135.346 125.988, 145.083 123.709, 154.820 121.430, 164.557 119.151, 174.293 116.854, 184.106 117.776, 194.064 118.699, 204.021 119.621, 213.978 120.544, 223.936 121.466, 233.893 122.389, 243.850 123.312, 253.808 124.234, 263.765 125.157, 273.722 126.079, 283.680 127.002, 293.637 127.924, 303.594 128.847, 313.552 129.769, 323.509 130.692, 333.466 131.614, 343.424 132.537, 353.381 133.459, 363.339 134.382, 373.296 135.304, 383.253 136.227, 393.211 137.150, 403.168 138.072, 413.125 139.178, 425.060 149.160, 424.463 159.142, 423.865 169.124, 423.268 179.106, 422.671 189.089, 422.073 199.071, 421.476 209.053, 420.878 219.035, 420.281 229.017, 419.684 238.999, 419.086 248.981, 418.489 258.964, 417.891 268.946, 417.294 278.928, 416.697 288.910, 416.099 298.892, 415.502 308.874, 414.904 318.856, 414.307 328.839, 413.710 338.821, 413.112 348.803, 412.515 358.785, 411.917 368.767, 411.320 378.749, 410.723 390.340, 410.029 391.387, 400.084 392.434, 390.139 393.482, 380.194 394.529, 370.249 395.576, 360.304 396.623, 350.359 397.670, 340.414 398.717, 330.469 399.764, 320.524 400.811, 310.579 401.858, 300.634 402.905, 290.688 403.952, 280.743 405.000, 270.798 406.047, 260.853 407.094, 250.908 408.141, 240.963 409.188, 231.018 410.235, 221.073 411.282, 211.128 412.329, 201.183 413.376, 191.238 414.423, 181.293 415.138, 174.509 408.645, 166.903 402.152, 159.298 395.659, 151.693 389.166, 144.087 382.673, 136.482 376.180, 128.877 369.687, 121.271 363.194, 113.666 356.701, 106.061 352.438, 101.068 " fill="none" stroke="rgb(0, 0, 0)" stroke-linecap="butt" stroke-linejoin="round" stroke-opacity="1.0" stroke-width="3.0" />
            <path d=" M 116.854, 184.106 126.849, 183.785 136.843, 183.463 146.838, 183.141 156.833, 182.820 166.828, 182.498 176.823, 182.177 186.818, 181.855 196.812, 181.533 206.807, 181.212 216.802, 180.890 226.797, 180.569 236.792, 180.247 246.787, 179.925 256.781, 179.604 266.776, 179.282 276.771, 178.961 286.766, 178.639 296.761, 178.317 306.755, 177.996 316.750, 177.674 326.745, 177.353 336.740, 177.031 346.735, 176.709 356.730, 176.388 366.724, 176.066 376.719, 175.745 386.714, 175.423 396.709, 175.102 406.704, 174.780 415.138, 174.509 " fill="none" stroke="rgb(0, 0, 0)" stroke-linecap="butt" stroke-linejoin="round" stroke-opacity="1.0" stroke-width="3.0" />
        </g>
    </g>
</svg>
