<?xml version='1.0' encoding='ascii'?>
<svg xmlns="http://www.w3.org/2000/svg" height="512" version="1.1" width="512">
    <g id="View Layer_LineSet" inkscape:groupmode="lineset" inkscape:label="View Layer_LineSet" xmlns:inkscape="http://www.inkscape.org/namespaces/inkscape">
        <g id="strokes" inkscape:groupmode="layer" inkscape:label="strokes" xmlns:inkscape="http://www.inkscape.org/namespaces/inkscape">
            <path d=" M 342.016, 99.240 332.026, 99.678 322.035, 100.115 312.045, 100.552 302.054, 100.990 292.064, 101.427 282.073, 101.864 272.083, 102.302 262.093, 102.739 252.102, 103.176 242.112, 103.614 232.121, 104.051 222.131, 104.488 212.140, 104.926 202.150, 105.363 192.160, 105.800 182.169, 106.238 172.179, 106.675 162.188, 107.112 152.198, 107.550 142.207, 107.987 132.217, 108.424 125.930, 108.700 126.295, 118.693 126.661, 128.686 127.026, 138.680 127.392, 148.673 127.757, 158.666 128.123, 168.659 128.488, 178.653 128.825, 187.863 129.671, 197.828 130.517, 207.792 131.363, 217.756 132.209, 227.720 133.054, 237.684 133.900, 247.648 134.746, 257.613 135.592, 267.577 136.438, 277.541 137.284, 287.505 138.130, 297.469 138.975, 307.433 139.821, 317.397 140.667, 327.362 141.513, 337.326 142.359, 347.290 143.205, 357.254 144.051, 367.218 144.896, 377.182 145.742, 387.147 146.588, 397.111 147.434, 407.075 148.280, 417.039 149.126, 427.003 149.456, 430.900 159.394, 429.780 169.331, 428.660 179.268, 427.540 189.205, 426.421 199.142, 425.301 209.079, 424.181 219.016, 423.061 228.953, 421.941 238.890, 420.821 248.827, 419.701 258.765, 418.581 268.702, 417.461 278.639, 416.342 288.576, 415.222 298.513, 414.102 308.450, 412.982 318.387, 411.862 328.324, 410.742 338.261, 409.622 348.198, 408.502 358.135, 407.382 368.073, 406.263 378.010, 405.143 387.947, 404.023 396.889, 403.015 397.981, 393.075 399.072, 383.134 400.164, 373.194 401.256, 363.254 402.347, 353.314 403.439, 343.373 404.530, 333.433 405.622, 323.493 406.714, 313.553 407.805, 303.613 408.897, 293.672 409.988, 283.732 411.080, 273.792 412.172, 263.852 413.263, 253.911 414.355, 243.971 415.446, 234.031 416.538, 224.091 417.630, 214.150 418.721, 204.210 419.813, 194.270 420.904, 184.330 421.996, 174.389 422.471, 170.066 414.965, 163.458 407.459, 156.851 399.953, 150.243 392.447, 143.635 384.941, 137.028 377.435, 130.420 369.929, 123.813 362.423, 117.205 354.917, 110.597 347.411, 103.990 342.016, 99.240 " fill="none" stroke="rgb(0, 0, 0)" stroke-linecap="butt" stroke-linejoin="round" stroke-opacity="1.0" stroke-width="3.0" />
            <path d=" M 128.825, 187.863 138.807, 187.258 148.788, 186.653 158.770, 186.048 168.752, 185.443 178.734, 184.839 188.715, 184.234 198.697, 183.629 208.679, 183.024 218.660, 182.419 228.642, 181.814 238.624, 181.209 248.605, 180.604 258.587, 179.999 268.569, 179.394 278.550, 178.789 288.532, 178.184 298.514, 177.579 308.495, 176.974 318.477, 176.369 328.459, 175.764 338.440, 175.159 348.422, 174.554 358.404, 173.949 368.385, 173.344 378.367, 172.739 388.349, 172.134 398.331, 171.529 408.312, 170.924 418.294, 170.319 422.471, 170.066 " fill="none" stroke="rgb(0, 0, 0)" stroke-linecap="butt" stroke-linejoin="round" stroke-opacity="1.0" stroke-width="3.0" />
        </g>
    </g>
</svg>
