<?xml version='1.0' encoding='ascii'?>
<svg xmlns="http://www.w3.org/2000/svg" height="512" version="1.1" width="512">
    <g id="View Layer_LineSet" inkscape:groupmode="lineset" inkscape:label="View Layer_LineSet" xmlns:inkscape="http://www.inkscape.org/namespaces/inkscape">
        <g id="strokes" inkscape:groupmode="layer" inkscape:label="strokes" xmlns:inkscape="http://www.inkscape.org/namespaces/inkscape">
            <path d=" M 331.574, 97.673 321.595, 98.313 311.615, 98.954 301.636, 99.594 291.656, 100.234 281.677, 100.875 271.698, 101.515 261.718, 102.156 251.739, 102.796 241.759, 103.436 231.780, 104.077 221.800, 104.717 211.821, 105.357 201.841, 105.998 191.862, 106.638 181.882, 107.278 171.903, 107.919 161.923, 108.559 151.944, 109.199 141.964, 109.840 131.985, 110.480 122.005, 111.121 117.452, 111.413 118.329, 121.374 119.205, 131.336 120.082, 141.297 120.958, 151.259 121.835, 161.220 122.711, 171.182 123.588, 181.143 124.464, 191.105 125.341, 201.066 126.217, 211.028 127.094, 220.989 127.970, 230.951 128.847, 240.912 129.723, 250.874 130.600, 260.835 131.477, 270.797 132.353, 280.758 133.230, 290.720 134.106, 300.681 134.657, 306.943 136.617, 316.749 138.577, 326.555 140.537, 336.361 142.497, 346.167 144.457, 355.973 146.417, 365.779 148.378, 375.585 150.338, 385.391 152.298, 395.197 154.258, 405.003 156.218, 414.810 158.178, 424.616 160.138, 434.422 160.474, 436.103 170.339, 434.466 180.204, 432.828 190.069, 431.190 199.934, 429.552 209.799, 427.914 219.664, 426.276 229.529, 424.639 239.394, 423.001 249.259, 421.363 259.124, 419.725 268.989, 418.087 278.854, 416.449 288.719, 414.811 298.583, 413.174 308.448, 411.536 318.313, 409.898 328.178, 408.260 338.043, 406.622 347.908, 404.984 357.773, 403.346 367.638, 401.709 377.503, 400.071 387.368, 398.433 397.233, 396.795 402.141, 395.980 403.266, 386.044 404.392, 376.107 405.518, 366.171 406.643, 356.234 407.769, 346.298 408.895, 336.362 410.020, 326.425 411.146, 316.489 412.272, 306.552 413.397, 296.616 414.523, 286.679 415.649, 276.743 416.774, 266.807 417.900, 256.870 419.026, 246.934 420.151, 236.997 421.277, 227.061 422.403, 217.124 423.528, 207.188 424.654, 197.251 425.780, 187.315 426.906, 177.379 428.236, 165.633 420.056, 159.881 411.875, 154.130 403.695, 148.378 395.514, 142.627 387.334, 136.876 379.153, 131.124 370.973, 125.373 362.792, 119.621 354.612, 113.870 346.431, 108.118 338.251, 102.367 331.574, 97.673 " fill="none" stroke="rgb(0, 0, 0)" stroke-linecap="butt" stroke-linejoin="round" stroke-opacity="1.0" stroke-width="3.0" />
            <path d=" M 117.452, 111.413 120.365, 120.979 123.279, 130.545 126.192, 140.111 129.105, 149.678 132.019, 159.244 134.932, 168.810 137.845, 178.376 140.759, 187.942 141.758, 191.225 " fill="none" stroke="rgb(0, 0, 0)" stroke-linecap="butt" stroke-linejoin="round" stroke-opacity="1.0" stroke-width="3.0" />
            <path d=" M 160.474, 436.103 159.712, 426.133 158.950, 416.162 158.188, 406.191 157.426, 396.220 156.664, 386.249 155.902, 376.278 155.140, 366.307 154.378, 356.336 153.615, 346.365 152.853, 336.394 152.091, 326.423 151.329, 316.452 150.567, 306.482 149.805, 296.511 149.043, 286.540 148.281, 276.569 147.519, 266.598 146.757, 256.627 145.995, 246.656 145.233, 236.685 144.471, 226.714 143.709, 216.743 142.947, 206.772 142.185, 196.801 141.758, 191.225 151.719, 190.335 161.679, 189.445 171.639, 188.555 181.600, 187.666 191.560, 186.776 201.520, 185.886 211.481, 184.996 221.441, 184.106 231.401, 183.217 241.362, 182.327 251.322, 181.437 261.282, 180.547 271.243, 179.658 281.203, 178.768 291.163, 177.878 301.124, 176.988 311.084, 176.098 321.044, 175.209 331.005, 174.319 340.965, 173.429 350.925, 172.539 360.886, 171.649 370.846, 170.760 380.806, 169.870 390.767, 168.980 400.727, 168.090 410.687, 167.201 420.648, 166.311 428.236, 165.633 " fill="none" stroke="rgb(0, 0, 0)" stroke-linecap="butt" stroke-linejoin="round" stroke-opacity="1.0" stroke-width="3.0" />
        </g>
    </g>
</svg>
