<?xml version='1.0' encoding='ascii'?>
<svg xmlns="http://www.w3.org/2000/svg" height="512" version="1.1" width="512">
    <g id="View Layer_LineSet" inkscape:groupmode="lineset" inkscape:label="View Layer_LineSet" xmlns:inkscape="http://www.inkscape.org/namespaces/inkscape">
        <g id="strokes" inkscape:groupmode="layer" inkscape:label="strokes" xmlns:inkscape="http://www.inkscape.org/namespaces/inkscape">
            <path d=" M 321.278, 96.362 311.313, 97.204 301.349, 98.046 291.384, 98.887 281.419, 99.729 271.455, 100.570 261.490, 101.412 251.526, 102.254 241.561, 103.095 231.597, 103.937 221.632, 104.779 211.668, 105.620 201.703, 106.462 191.739, 107.303 181.774, 108.145 171.810, 108.987 161.845, 109.828 151.881, 110.670 141.916, 111.511 131.952, 112.353 121.987, 113.195 112.023, 114.036 109.766, 114.227 110.693, 124.184 111.619, 134.141 112.545, 144.098 113.472, 154.055 114.398, 164.012 115.325, 173.969 116.251, 183.926 117.177, 193.883 118.104, 203.840 119.030, 213.797 119.957, 223.754 120.883, 233.711 121.809, 243.668 122.736, 253.625 123.662, 263.582 124.588, 273.539 125.515, 283.496 126.441, 293.453 127.368, 303.410 128.139, 311.705 131.358, 321.173 134.577, 330.641 137.796, 340.109 141.015, 349.576 144.233, 359.044 147.452, 368.512 150.671, 377.980 153.890, 387.448 157.109, 396.915 160.327, 406.383 163.546, 415.851 166.765, 425.319 169.984, 434.787 171.961, 440.601 181.727, 438.452 191.493, 436.303 201.260, 434.154 211.026, 432.005 220.792, 429.856 230.559, 427.707 240.325, 425.558 250.092, 423.409 259.858, 421.260 269.624, 419.112 279.391, 416.963 289.157, 414.814 298.923, 412.665 308.690, 410.516 318.456, 408.367 328.223, 406.218 337.989, 404.069 347.755, 401.920 357.522, 399.771 367.288, 397.622 377.055, 395.473 386.821, 393.324 396.587, 391.176 406.147, 389.072 407.297, 379.138 408.447, 369.205 409.597, 359.271 410.747, 349.338 411.897, 339.404 413.047, 329.470 414.197, 319.537 415.347, 309.603 416.497, 299.669 417.647, 289.736 418.797, 279.802 419.947, 269.868 421.097, 259.935 422.247, 250.001 423.397, 240.067 424.547, 230.134 425.698, 220.200 426.848, 210.266 427.998, 200.333 429.148, 190.399 430.298, 180.466 431.448, 170.532 432.516, 161.301 423.880, 156.260 415.244, 151.218 406.608, 146.177 397.972, 141.135 389.336, 136.093 380.700, 131.052 372.064, 126.010 363.428, 120.969 354.791, 115.927 346.155, 110.886 337.519, 105.844 328.883, 100.802 321.278, 96.362 " fill="none" stroke="rgb(0, 0, 0)" stroke-linecap="butt" stroke-linejoin="round" stroke-opacity="1.0" stroke-width="3.0" />
            <path d=" M 109.766, 114.227 114.719, 122.914 119.672, 131.601 124.625, 140.288 129.578, 148.976 134.531, 157.663 139.484, 166.350 144.437, 175.037 149.391, 183.724 154.344, 192.412 155.329, 194.140 " fill="none" stroke="rgb(0, 0, 0)" stroke-linecap="butt" stroke-linejoin="round" stroke-opacity="1.0" stroke-width="3.0" />
            <path d=" M 171.961, 440.601 171.287, 430.624 170.614, 420.646 169.941, 410.669 169.267, 400.692 168.594, 390.714 167.921, 380.737 167.248, 370.760 166.574, 360.782 165.901, 350.805 165.228, 340.828 164.555, 330.850 163.881, 320.873 163.208, 310.896 162.535, 300.918 161.861, 290.941 161.188, 280.964 160.515, 270.987 159.842, 261.009 159.168, 251.032 158.495, 241.055 157.822, 231.077 157.148, 221.100 156.475, 211.123 155.802, 201.145 155.329, 194.140 165.260, 192.964 175.190, 191.787 185.121, 190.611 195.051, 189.434 204.982, 188.258 214.912, 187.081 224.843, 185.905 234.774, 184.728 244.704, 183.552 254.635, 182.375 264.565, 181.199 274.496, 180.022 284.426, 178.846 294.357, 177.669 304.287, 176.493 314.218, 175.316 324.149, 174.140 334.079, 172.963 344.010, 171.787 353.940, 170.610 363.871, 169.434 373.801, 168.258 383.732, 167.081 393.662, 165.905 403.593, 164.728 413.524, 163.552 423.454, 162.375 432.516, 161.301 " fill="none" stroke="rgb(0, 0, 0)" stroke-linecap="butt" stroke-linejoin="round" stroke-opacity="1.0" stroke-width="3.0" />
        </g>
    </g>
</svg>
