<?xml version='1.0' encoding='ascii'?>
<svg xmlns="http://www.w3.org/2000/svg" height="512" version="1.1" width="512">
    <g id="View Layer_LineSet" inkscape:groupmode="lineset" inkscape:label="View Layer_LineSet" xmlns:inkscape="http://www.inkscape.org/namespaces/inkscape">
        <g id="strokes" inkscape:groupmode="layer" inkscape:label="strokes" xmlns:inkscape="http://www.inkscape.org/namespaces/inkscape">
            <path d=" M 311.289, 95.297 301.343, 96.337 291.398, 97.377 281.452, 98.417 271.506, 99.457 261.560, 100.498 251.615, 101.538 241.669, 102.578 231.723, 103.618 221.777, 104.658 211.831, 105.698 201.886, 106.738 191.940, 107.778 181.994, 108.818 172.048, 109.858 162.103, 110.899 152.157, 111.939 142.211, 112.979 132.265, 114.019 122.320, 115.059 112.374, 116.099 102.939, 117.086 103.910, 127.039 104.881, 136.991 105.852, 146.944 106.823, 156.897 107.794, 166.850 108.765, 176.802 109.736, 186.755 110.707, 196.708 111.678, 206.660 112.649, 216.613 113.620, 226.566 114.591, 236.519 115.562, 246.471 116.533, 256.424 117.504, 266.377 118.475, 276.330 119.446, 286.282 120.417, 296.235 121.388, 306.188 122.396, 316.527 126.716, 325.546 131.035, 334.565 135.354, 343.584 139.674, 352.603 143.993, 361.622 148.312, 370.641 152.632, 379.660 156.951, 388.679 161.270, 397.698 165.590, 406.717 169.909, 415.737 174.228, 424.756 178.548, 433.775 182.867, 442.794 183.617, 444.359 193.259, 441.709 202.902, 439.060 212.544, 436.410 222.187, 433.760 231.830, 431.111 241.472, 428.461 251.115, 425.812 260.757, 423.162 270.400, 420.513 280.043, 417.863 289.685, 415.214 299.328, 412.564 308.970, 409.915 318.613, 407.265 328.256, 404.615 337.898, 401.966 347.541, 399.316 357.184, 396.667 366.826, 394.017 376.469, 391.368 386.111, 388.718 395.754, 386.069 405.397, 383.419 409.008, 382.427 410.174, 372.495 411.339, 362.563 412.505, 352.631 413.671, 342.700 414.837, 332.768 416.002, 322.836 417.168, 312.904 418.334, 302.972 419.500, 293.040 420.666, 283.109 421.831, 273.177 422.997, 263.245 424.163, 253.313 425.329, 243.381 426.494, 233.450 427.660, 223.518 428.826, 213.586 429.992, 203.654 431.158, 193.722 432.323, 183.790 433.489, 173.859 434.655, 163.927 435.450, 157.155 426.499, 152.696 417.548, 148.236 408.598, 143.777 399.647, 139.318 390.696, 134.858 381.746, 130.399 372.795, 125.940 363.844, 121.481 354.894, 117.021 345.943, 112.562 336.992, 108.103 328.042, 103.643 319.091, 99.184 311.289, 95.297 " fill="none" stroke="rgb(0, 0, 0)" stroke-linecap="butt" stroke-linejoin="round" stroke-opacity="1.0" stroke-width="3.0" />
            <path d=" M 102.939, 117.086 109.340, 124.769 115.741, 132.452 122.142, 140.135 128.543, 147.818 134.944, 155.500 141.345, 163.183 147.746, 170.866 154.146, 178.549 160.547, 186.232 166.948, 193.915 169.172, 196.584 " fill="none" stroke="rgb(0, 0, 0)" stroke-linecap="butt" stroke-linejoin="round" stroke-opacity="1.0" stroke-width="3.0" />
            <path d=" M 183.617, 444.359 183.035, 434.376 182.453, 424.393 181.871, 414.409 181.289, 404.426 180.707, 394.443 180.125, 384.460 179.543, 374.477 178.961, 364.494 178.379, 354.511 177.797, 344.528 177.215, 334.545 176.633, 324.562 176.051, 314.579 175.469, 304.596 174.887, 294.613 174.305, 284.630 173.723, 274.647 173.141, 264.664 172.559, 254.681 171.977, 244.698 171.395, 234.715 170.813, 224.732 170.231, 214.748 169.649, 204.765 169.172, 196.584 179.064, 195.119 188.956, 193.654 198.848, 192.190 208.740, 190.725 218.633, 189.260 228.525, 187.795 238.417, 186.331 248.309, 184.866 258.201, 183.401 268.093, 181.936 277.985, 180.471 287.878, 179.007 297.770, 177.542 307.662, 176.077 317.554, 174.612 327.446, 173.148 337.338, 171.683 347.230, 170.218 357.123, 168.753 367.015, 167.289 376.907, 165.824 386.799, 164.359 396.691, 162.894 406.583, 161.429 416.475, 159.965 426.368, 158.500 435.450, 157.155 " fill="none" stroke="rgb(0, 0, 0)" stroke-linecap="butt" stroke-linejoin="round" stroke-opacity="1.0" stroke-width="3.0" />
        </g>
    </g>
</svg>
