<?xml version='1.0' encoding='ascii'?>
<svg xmlns="http://www.w3.org/2000/svg" height="512" version="1.1" width="512">
    <g id="View Layer_LineSet" inkscape:groupmode="lineset" inkscape:label="View Layer_LineSet" xmlns:inkscape="http://www.inkscape.org/namespaces/inkscape">
        <g id="strokes" inkscape:groupmode="layer" inkscape:label="strokes" xmlns:inkscape="http://www.inkscape.org/namespaces/inkscape">
            <path d=" M 301.769, 94.459 291.845, 95.693 281.921, 96.928 271.998, 98.162 262.074, 99.396 252.151, 100.631 242.227, 101.865 232.304, 103.099 222.380, 104.333 212.457, 105.568 202.533, 106.802 192.610, 108.036 182.686, 109.271 172.763, 110.505 162.839, 111.739 152.916, 112.974 142.992, 114.208 133.068, 115.442 123.145, 116.676 113.221, 117.911 103.298, 119.145 97.006, 119.927 98.017, 129.876 99.027, 139.825 100.037, 149.774 101.047, 159.723 102.057, 169.672 103.067, 179.621 104.077, 189.569 105.087, 199.518 106.097, 209.467 107.107, 219.416 108.117, 229.365 109.127, 239.314 110.137, 249.263 111.147, 259.212 112.157, 269.160 113.167, 279.109 114.177, 289.058 115.188, 299.007 116.198, 308.956 117.208, 318.905 117.451, 321.303 122.697, 329.817 127.942, 338.331 133.188, 346.845 138.433, 355.359 143.678, 363.873 148.924, 372.386 154.169, 380.900 159.415, 389.414 164.660, 397.928 169.906, 406.442 175.151, 414.956 180.397, 423.469 185.642, 431.983 190.887, 440.497 195.129, 447.381 204.625, 444.246 214.121, 441.112 223.617, 437.977 233.113, 434.842 242.609, 431.707 252.105, 428.573 261.601, 425.438 271.097, 422.303 280.593, 419.169 290.089, 416.034 299.584, 412.899 309.080, 409.764 318.576, 406.630 328.072, 403.495 337.568, 400.360 347.064, 397.226 356.560, 394.091 366.056, 390.956 375.552, 387.821 385.048, 384.687 394.544, 381.552 404.040, 378.417 410.862, 376.165 412.036, 366.234 413.210, 356.304 414.384, 346.373 415.559, 336.442 416.733, 326.511 417.907, 316.580 419.081, 306.649 420.255, 296.719 421.429, 286.788 422.604, 276.857 423.778, 266.926 424.952, 256.995 426.126, 247.065 427.300, 237.134 428.474, 227.203 429.648, 217.272 430.823, 207.341 431.997, 197.410 433.171, 187.480 434.345, 177.549 435.519, 167.618 436.693, 157.687 437.216, 153.266 428.043, 149.284 418.871, 145.301 409.698, 141.319 400.525, 137.336 391.352, 133.354 382.179, 129.371 373.007, 125.389 363.834, 121.406 354.661, 117.424 345.488, 113.441 336.316, 109.458 327.143, 105.476 317.970, 101.493 308.797, 97.511 301.769, 94.459 " fill="none" stroke="rgb(0, 0, 0)" stroke-linecap="butt" stroke-linejoin="round" stroke-opacity="1.0" stroke-width="3.0" />
            <path d=" M 97.006, 119.927 104.383, 126.680 111.759, 133.432 119.135, 140.184 126.511, 146.936 133.888, 153.688 141.264, 160.440 148.640, 167.193 156.016, 173.945 163.392, 180.697 170.769, 187.449 178.145, 194.201 182.900, 198.554 " fill="none" stroke="rgb(0, 0, 0)" stroke-linecap="butt" stroke-linejoin="round" stroke-opacity="1.0" stroke-width="3.0" />
            <path d=" M 195.129, 447.381 194.638, 437.393 194.147, 427.405 193.656, 417.417 193.165, 407.429 192.674, 397.441 192.184, 387.453 191.693, 377.465 191.202, 367.477 190.711, 357.489 190.220, 347.501 189.729, 337.514 189.238, 327.526 188.748, 317.538 188.257, 307.550 187.766, 297.562 187.275, 287.574 186.784, 277.586 186.293, 267.598 185.802, 257.610 185.312, 247.622 184.821, 237.634 184.330, 227.646 183.839, 217.658 183.348, 207.670 182.900, 198.554 192.745, 196.801 202.590, 195.048 212.435, 193.295 222.281, 191.541 232.126, 189.788 241.971, 188.035 251.816, 186.282 261.661, 184.529 271.506, 182.775 281.351, 181.022 291.196, 179.269 301.041, 177.516 310.887, 175.763 320.732, 174.009 330.577, 172.256 340.422, 170.503 350.267, 168.750 360.112, 166.997 369.957, 165.244 379.802, 163.490 389.648, 161.737 399.493, 159.984 409.338, 158.231 419.183, 156.478 429.028, 154.724 437.216, 153.266 " fill="none" stroke="rgb(0, 0, 0)" stroke-linecap="butt" stroke-linejoin="round" stroke-opacity="1.0" stroke-width="3.0" />
        </g>
    </g>
</svg>
