<?xml version='1.0' encoding='ascii'?>
<svg xmlns="http://www.w3.org/2000/svg" height="512" version="1.1" width="512">
    <g id="View Layer_LineSet" inkscape:groupmode="lineset" inkscape:label="View Layer_LineSet" xmlns:inkscape="http://www.inkscape.org/namespaces/inkscape">
        <g id="strokes" inkscape:groupmode="layer" inkscape:label="strokes" xmlns:inkscape="http://www.inkscape.org/namespaces/inkscape">
            <path d=" M 292.870, 93.825 282.971, 95.247 273.073, 96.669 263.175, 98.091 253.276, 99.513 243.378, 100.935 233.480, 102.357 223.581, 103.779 213.683, 105.201 203.784, 106.623 193.886, 108.045 183.988, 109.467 174.089, 110.889 164.191, 112.311 154.292, 113.733 144.394, 115.155 134.496, 116.577 124.597, 117.999 114.699, 119.421 104.801, 120.843 94.902, 122.265 91.976, 122.685 93.019, 132.630 94.063, 142.576 95.106, 152.521 96.150, 162.467 97.193, 172.412 98.237, 182.357 99.280, 192.303 100.324, 202.248 101.367, 212.194 102.411, 222.139 103.454, 232.084 104.498, 242.030 105.541, 251.975 106.585, 261.921 107.628, 271.866 108.672, 281.811 109.715, 291.757 110.759, 301.702 111.802, 311.648 112.846, 321.593 113.300, 325.923 119.302, 333.922 125.304, 341.920 131.306, 349.919 137.308, 357.917 143.310, 365.916 149.312, 373.914 155.314, 381.913 161.316, 389.911 167.318, 397.910 173.320, 405.908 179.322, 413.907 185.324, 421.905 191.326, 429.904 197.328, 437.902 203.330, 445.901 206.186, 449.707 215.516, 446.110 224.847, 442.512 234.177, 438.914 243.507, 435.316 252.838, 431.718 262.168, 428.120 271.498, 424.522 280.829, 420.924 290.159, 417.327 299.489, 413.729 308.820, 410.131 318.150, 406.533 327.480, 402.935 336.811, 399.337 346.141, 395.739 355.471, 392.141 364.802, 388.544 374.132, 384.946 383.462, 381.348 392.793, 377.750 402.123, 374.152 411.874, 370.392 413.051, 360.462 414.227, 350.531 415.404, 340.601 416.580, 330.670 417.757, 320.739 418.934, 310.809 420.110, 300.878 421.287, 290.948 422.463, 281.017 423.640, 271.087 424.816, 261.156 425.993, 251.226 427.170, 241.295 428.346, 231.365 429.523, 221.434 430.700, 211.504 431.876, 201.573 433.053, 191.642 434.229, 181.712 435.406, 171.781 436.583, 161.851 437.759, 151.920 438.023, 149.696 428.690, 146.104 419.358, 142.512 410.025, 138.920 400.693, 135.328 391.360, 131.735 382.027, 128.143 372.695, 124.551 363.362, 120.959 354.030, 117.367 344.697, 113.774 335.365, 110.182 326.032, 106.590 316.700, 102.998 307.367, 99.406 298.035, 95.813 292.870, 93.825 " fill="none" stroke="rgb(0, 0, 0)" stroke-linecap="butt" stroke-linejoin="round" stroke-opacity="1.0" stroke-width="3.0" />
            <path d=" M 91.976, 122.685 100.003, 128.649 108.029, 134.613 116.056, 140.578 124.083, 146.542 132.109, 152.506 140.136, 158.470 148.163, 164.434 156.190, 170.398 164.216, 176.363 172.243, 182.327 180.270, 188.291 188.297, 194.255 196.127, 200.074 " fill="none" stroke="rgb(0, 0, 0)" stroke-linecap="butt" stroke-linejoin="round" stroke-opacity="1.0" stroke-width="3.0" />
            <path d=" M 206.186, 449.707 205.783, 439.716 205.381, 429.724 204.978, 419.732 204.575, 409.740 204.173, 399.748 203.770, 389.756 203.368, 379.764 202.965, 369.772 202.562, 359.780 202.160, 349.788 201.757, 339.797 201.355, 329.805 200.952, 319.813 200.549, 309.821 200.147, 299.829 199.744, 289.837 199.342, 279.845 198.939, 269.853 198.536, 259.861 198.134, 249.870 197.731, 239.878 197.328, 229.886 196.926, 219.894 196.523, 209.902 196.127, 200.074 205.917, 198.035 215.707, 195.996 225.497, 193.957 235.287, 191.918 245.077, 189.879 254.867, 187.841 264.657, 185.802 274.447, 183.763 284.237, 181.724 294.027, 179.685 303.817, 177.646 313.607, 175.607 323.397, 173.569 333.186, 171.530 342.976, 169.491 352.766, 167.452 362.556, 165.413 372.346, 163.374 382.136, 161.335 391.926, 159.296 401.716, 157.258 411.506, 155.219 421.296, 153.180 431.086, 151.141 438.023, 149.696 " fill="none" stroke="rgb(0, 0, 0)" stroke-linecap="butt" stroke-linejoin="round" stroke-opacity="1.0" stroke-width="3.0" />
        </g>
    </g>
</svg>
