<?xml version='1.0' encoding='ascii'?>
<svg xmlns="http://www.w3.org/2000/svg" height="512" version="1.1" width="512">
    <g id="View Layer_LineSet" inkscape:groupmode="lineset" inkscape:label="View Layer_LineSet" xmlns:inkscape="http://www.inkscape.org/namespaces/inkscape">
        <g id="strokes" inkscape:groupmode="layer" inkscape:label="strokes" xmlns:inkscape="http://www.inkscape.org/namespaces/inkscape">
            <path d=" M 284.740, 93.368 274.869, 94.968 264.998, 96.568 255.127, 98.168 245.256, 99.769 235.384, 101.369 225.513, 102.969 215.642, 104.569 205.771, 106.169 195.900, 107.769 186.029, 109.369 176.158, 110.969 166.286, 112.570 156.415, 114.170 146.544, 115.770 136.673, 117.370 126.802, 118.970 116.931, 120.570 107.060, 122.170 97.188, 123.771 87.823, 125.289 88.895, 135.231 89.966, 145.173 91.037, 155.116 92.109, 165.058 93.180, 175.001 94.252, 184.943 95.323, 194.886 96.394, 204.828 97.466, 214.771 98.537, 224.713 99.608, 234.655 100.680, 244.598 101.751, 254.540 102.823, 264.483 103.894, 274.425 104.965, 284.368 106.037, 294.310 107.108, 304.253 108.180, 314.195 109.251, 324.137 109.912, 330.271 116.517, 337.779 123.123, 345.287 129.729, 352.794 136.334, 360.302 142.940, 367.810 149.545, 375.318 156.151, 382.825 162.756, 390.333 169.362, 397.841 175.967, 405.349 182.573, 412.856 189.179, 420.364 195.784, 427.872 202.390, 435.380 208.995, 442.887 216.492, 451.408 225.644, 447.377 234.795, 443.346 243.947, 439.315 253.098, 435.284 262.250, 431.253 271.401, 427.222 280.553, 423.192 289.705, 419.161 298.856, 415.130 308.008, 411.099 317.159, 407.068 326.311, 403.037 335.463, 399.006 344.614, 394.975 353.766, 390.944 362.917, 386.913 372.069, 382.882 381.221, 378.851 390.372, 374.820 399.524, 370.789 408.675, 366.758 412.223, 365.196 413.398, 355.265 414.573, 345.334 415.747, 335.403 416.922, 325.472 418.097, 315.542 419.271, 305.611 420.446, 295.680 421.620, 285.749 422.795, 275.819 423.970, 265.888 425.144, 255.957 426.319, 246.026 427.494, 236.095 428.668, 226.165 429.843, 216.234 431.017, 206.303 432.192, 196.372 433.367, 186.442 434.541, 176.511 435.716, 166.580 436.891, 156.649 438.092, 146.495 428.643, 143.222 419.194, 139.948 409.745, 136.675 400.296, 133.401 390.847, 130.128 381.397, 126.854 371.948, 123.581 362.499, 120.307 353.050, 117.034 343.601, 113.760 334.152, 110.487 324.703, 107.213 315.254, 103.939 305.805, 100.666 296.356, 97.392 286.907, 94.119 284.740, 93.368 " fill="none" stroke="rgb(0, 0, 0)" stroke-linecap="butt" stroke-linejoin="round" stroke-opacity="1.0" stroke-width="3.0" />
            <path d=" M 87.823, 125.289 96.288, 130.613 104.753, 135.937 113.217, 141.262 121.682, 146.586 130.147, 151.911 138.611, 157.235 147.076, 162.559 155.541, 167.884 164.005, 173.208 172.470, 178.533 180.935, 183.857 189.399, 189.181 197.864, 194.506 206.329, 199.830 208.485, 201.186 " fill="none" stroke="rgb(0, 0, 0)" stroke-linecap="butt" stroke-linejoin="round" stroke-opacity="1.0" stroke-width="3.0" />
            <path d=" M 216.492, 451.408 216.172, 441.413 215.852, 431.418 215.532, 421.423 215.213, 411.429 214.893, 401.434 214.573, 391.439 214.253, 381.444 213.933, 371.449 213.613, 361.454 213.293, 351.459 212.974, 341.464 212.654, 331.470 212.334, 321.475 212.014, 311.480 211.694, 301.485 211.374, 291.490 211.055, 281.495 210.735, 271.500 210.415, 261.505 210.095, 251.510 209.775, 241.516 209.455, 231.521 209.135, 221.526 208.816, 211.531 208.485, 201.186 218.212, 198.869 227.940, 196.552 237.668, 194.235 247.396, 191.918 257.124, 189.601 266.852, 187.284 276.579, 184.967 286.307, 182.649 296.035, 180.332 305.763, 178.015 315.491, 175.698 325.219, 173.381 334.947, 171.064 344.674, 168.747 354.402, 166.430 364.130, 164.113 373.858, 161.795 383.586, 159.478 393.314, 157.161 403.042, 154.844 412.769, 152.527 422.497, 150.210 432.225, 147.893 438.092, 146.495 " fill="none" stroke="rgb(0, 0, 0)" stroke-linecap="butt" stroke-linejoin="round" stroke-opacity="1.0" stroke-width="3.0" />
        </g>
    </g>
</svg>
