<?xml version='1.0' encoding='ascii'?>
<svg xmlns="http://www.w3.org/2000/svg" height="512" version="1.1" width="512">
    <g id="View Layer_LineSet" inkscape:groupmode="lineset" inkscape:label="View Layer_LineSet" xmlns:inkscape="http://www.inkscape.org/namespaces/inkscape">
        <g id="strokes" inkscape:groupmode="layer" inkscape:label="strokes" xmlns:inkscape="http://www.inkscape.org/namespaces/inkscape">
            <path d=" M 271.340, 92.860 261.525, 94.772 251.709, 96.684 241.894, 98.596 232.078, 100.508 222.263, 102.420 212.447, 104.331 202.632, 106.243 192.816, 108.155 183.001, 110.067 173.185, 111.979 163.370, 113.891 153.554, 115.803 143.738, 117.714 133.923, 119.626 124.107, 121.538 114.292, 123.450 104.476, 125.362 94.661, 127.274 84.845, 129.186 81.935, 129.753 83.047, 139.691 84.158, 149.629 85.270, 159.567 86.381, 169.505 87.493, 179.443 88.604, 189.381 89.716, 199.319 90.828, 209.257 91.939, 219.195 93.051, 229.133 94.162, 239.071 95.274, 249.009 96.385, 258.947 97.497, 268.885 98.609, 278.823 99.720, 288.761 100.832, 298.699 101.943, 308.637 103.055, 318.575 104.167, 328.513 105.193, 337.695 112.630, 344.381 120.066, 351.067 127.502, 357.753 134.939, 364.439 142.375, 371.125 149.811, 377.811 157.247, 384.497 164.684, 391.182 172.120, 397.868 179.556, 404.554 186.992, 411.240 194.429, 417.926 201.865, 424.612 209.301, 431.298 216.737, 437.984 224.174, 444.670 231.610, 451.356 233.793, 453.319 242.583, 448.550 251.372, 443.781 260.162, 439.013 268.952, 434.244 277.742, 429.475 286.531, 424.707 295.321, 419.938 304.111, 415.169 312.901, 410.401 321.690, 405.632 330.480, 400.863 339.270, 396.094 348.059, 391.326 356.849, 386.557 365.639, 381.788 374.429, 377.020 383.218, 372.251 392.008, 367.482 400.798, 362.714 409.588, 357.945 411.674, 356.813 412.837, 346.881 414.000, 336.949 415.163, 327.017 416.327, 317.085 417.490, 307.153 418.653, 297.220 419.817, 287.288 420.980, 277.356 422.143, 267.424 423.306, 257.492 424.470, 247.560 425.633, 237.628 426.796, 227.696 427.959, 217.764 429.123, 207.832 430.286, 197.899 431.449, 187.967 432.613, 178.035 433.776, 168.103 434.939, 158.171 436.102, 148.239 436.908, 141.357 427.312, 138.546 417.715, 135.735 408.118, 132.924 398.521, 130.113 388.924, 127.302 379.328, 124.491 369.731, 121.680 360.134, 118.869 350.537, 116.058 340.941, 113.247 331.344, 110.436 321.747, 107.625 312.150, 104.814 302.553, 102.003 292.957, 99.192 283.360, 96.381 273.763, 93.570 271.340, 92.860 " fill="none" stroke="rgb(0, 0, 0)" stroke-linecap="butt" stroke-linejoin="round" stroke-opacity="1.0" stroke-width="3.0" />
            <path d=" M 81.935, 129.753 90.903, 134.177 99.871, 138.601 108.839, 143.025 117.807, 147.449 126.775, 151.873 135.744, 156.298 144.712, 160.722 153.680, 165.146 162.648, 169.570 171.616, 173.994 180.584, 178.418 189.552, 182.843 198.520, 187.267 207.488, 191.691 216.456, 196.115 225.424, 200.539 229.273, 202.438 " fill="none" stroke="rgb(0, 0, 0)" stroke-linecap="butt" stroke-linejoin="round" stroke-opacity="1.0" stroke-width="3.0" />
            <path d=" M 233.793, 453.319 233.613, 443.320 233.433, 433.322 233.252, 423.324 233.072, 413.325 232.892, 403.327 232.712, 393.329 232.532, 383.330 232.352, 373.332 232.172, 363.333 231.992, 353.335 231.811, 343.337 231.631, 333.338 231.451, 323.340 231.271, 313.342 231.091, 303.343 230.911, 293.345 230.731, 283.346 230.551, 273.348 230.370, 263.350 230.190, 253.351 230.010, 243.353 229.830, 233.354 229.650, 223.356 229.470, 213.358 229.273, 202.438 238.867, 199.616 248.460, 196.794 258.054, 193.971 267.647, 191.149 277.241, 188.327 286.834, 185.505 296.428, 182.683 306.021, 179.861 315.615, 177.039 325.208, 174.216 334.802, 171.394 344.395, 168.572 353.989, 165.750 363.582, 162.928 373.176, 160.106 382.769, 157.284 392.363, 154.461 401.956, 151.639 411.550, 148.817 421.143, 145.995 430.737, 143.173 436.908, 141.357 " fill="none" stroke="rgb(0, 0, 0)" stroke-linecap="butt" stroke-linejoin="round" stroke-opacity="1.0" stroke-width="3.0" />
        </g>
    </g>
</svg>
