<?xml version='1.0' encoding='ascii'?>
<svg xmlns="http://www.w3.org/2000/svg" height="512" version="1.1" width="512">
    <g id="View Layer_LineSet" inkscape:groupmode="lineset" inkscape:label="View Layer_LineSet" xmlns:inkscape="http://www.inkscape.org/namespaces/inkscape">
        <g id="strokes" inkscape:groupmode="layer" inkscape:label="strokes" xmlns:inkscape="http://www.inkscape.org/namespaces/inkscape">
            <path d=" M 266.329, 92.747 256.538, 94.783 246.748, 96.819 236.957, 98.854 227.167, 100.890 217.376, 102.925 207.585, 104.961 197.795, 106.996 188.004, 109.032 178.213, 111.067 168.423, 113.103 158.632, 115.138 148.841, 117.174 139.051, 119.209 129.260, 121.245 119.470, 123.280 109.679, 125.316 99.888, 127.352 90.098, 129.387 80.050, 131.476 81.174, 141.413 82.299, 151.349 83.424, 161.286 84.549, 171.222 85.673, 181.159 86.798, 191.095 87.923, 201.032 89.047, 210.969 90.172, 220.905 91.297, 230.842 92.421, 240.778 93.546, 250.715 94.671, 260.651 95.795, 270.588 96.920, 280.524 98.045, 290.461 99.170, 300.397 100.294, 310.334 101.419, 320.271 102.544, 330.207 103.714, 340.551 111.415, 346.931 119.115, 353.311 126.815, 359.691 134.515, 366.071 142.216, 372.451 149.916, 378.831 157.616, 385.212 165.317, 391.592 173.017, 397.972 180.717, 404.352 188.417, 410.732 196.118, 417.112 203.818, 423.492 211.518, 429.872 219.218, 436.253 226.919, 442.633 234.619, 449.013 240.332, 453.746 248.961, 448.693 257.591, 443.641 266.220, 438.588 274.850, 433.535 283.480, 428.482 292.109, 423.429 300.739, 418.377 309.368, 413.324 317.998, 408.271 326.627, 403.218 335.257, 398.165 343.886, 393.113 352.516, 388.060 361.146, 383.007 369.775, 377.954 378.405, 372.901 387.034, 367.848 395.664, 362.796 404.293, 357.743 411.126, 353.742 412.283, 343.809 413.439, 333.876 414.596, 323.943 415.752, 314.010 416.909, 304.078 418.066, 294.145 419.222, 284.212 420.379, 274.279 421.535, 264.346 422.692, 254.413 423.849, 244.480 425.005, 234.547 426.162, 224.614 427.318, 214.682 428.475, 204.749 429.632, 194.816 430.788, 184.883 431.945, 174.950 433.101, 165.017 434.258, 155.084 435.415, 145.151 436.075, 139.483 426.433, 136.828 416.792, 134.174 407.151, 131.519 397.510, 128.865 387.868, 126.210 378.227, 123.556 368.586, 120.901 358.945, 118.247 349.303, 115.592 339.662, 112.938 330.021, 110.283 320.380, 107.629 310.738, 104.974 301.097, 102.320 291.456, 99.665 281.815, 97.011 272.173, 94.356 266.329, 92.747 " fill="none" stroke="rgb(0, 0, 0)" stroke-linecap="butt" stroke-linejoin="round" stroke-opacity="1.0" stroke-width="3.0" />
            <path d=" M 80.050, 131.476 89.157, 135.606 98.264, 139.737 107.371, 143.867 116.479, 147.997 125.586, 152.127 134.693, 156.257 143.800, 160.388 152.907, 164.518 162.015, 168.648 171.122, 172.778 180.229, 176.908 189.336, 181.039 198.444, 185.169 207.551, 189.299 216.658, 193.429 225.765, 197.560 234.872, 201.690 237.140, 202.718 " fill="none" stroke="rgb(0, 0, 0)" stroke-linecap="butt" stroke-linejoin="round" stroke-opacity="1.0" stroke-width="3.0" />
            <path d=" M 240.332, 453.746 240.205, 443.747 240.078, 433.748 239.950, 423.749 239.823, 413.749 239.696, 403.750 239.569, 393.751 239.442, 383.752 239.315, 373.753 239.188, 363.754 239.060, 353.754 238.933, 343.755 238.806, 333.756 238.679, 323.757 238.552, 313.758 238.425, 303.758 238.298, 293.759 238.170, 283.760 238.043, 273.761 237.916, 263.762 237.789, 253.762 237.662, 243.763 237.535, 233.764 237.408, 223.765 237.280, 213.766 237.140, 202.718 246.670, 199.689 256.200, 196.659 265.730, 193.630 275.260, 190.601 284.791, 187.571 294.321, 184.542 303.851, 181.513 313.381, 178.483 322.911, 175.454 332.441, 172.425 341.971, 169.395 351.501, 166.366 361.031, 163.337 370.562, 160.307 380.092, 157.278 389.622, 154.249 399.152, 151.219 408.682, 148.190 418.212, 145.160 427.742, 142.131 436.075, 139.483 " fill="none" stroke="rgb(0, 0, 0)" stroke-linecap="butt" stroke-linejoin="round" stroke-opacity="1.0" stroke-width="3.0" />
        </g>
    </g>
</svg>
