<?xml version='1.0' encoding='ascii'?>
<svg xmlns="http://www.w3.org/2000/svg" height="512" version="1.1" width="512">
    <g id="View Layer_LineSet" inkscape:groupmode="lineset" inkscape:label="View Layer_LineSet" xmlns:inkscape="http://www.inkscape.org/namespaces/inkscape">
        <g id="strokes" inkscape:groupmode="layer" inkscape:label="strokes" xmlns:inkscape="http://www.inkscape.org/namespaces/inkscape">
            <path d=" M 262.606, 92.691 252.836, 94.821 243.065, 96.951 233.295, 99.082 223.524, 101.212 213.754, 103.342 203.984, 105.473 194.213, 107.603 184.443, 109.733 174.672, 111.864 164.902, 113.994 155.131, 116.124 145.361, 118.255 135.590, 120.385 125.820, 122.515 116.050, 124.646 106.279, 126.776 96.509, 128.906 86.738, 131.037 78.765, 132.775 79.899, 142.711 81.032, 152.646 82.166, 162.582 83.300, 172.517 84.434, 182.453 85.567, 192.388 86.701, 202.324 87.835, 212.259 88.969, 222.195 90.102, 232.130 91.236, 242.066 92.370, 252.001 93.503, 261.937 94.637, 271.872 95.771, 281.808 96.905, 291.744 98.038, 301.679 99.172, 311.615 100.306, 321.550 101.440, 331.486 102.719, 342.700 110.601, 348.854 118.483, 355.009 126.364, 361.163 134.246, 367.318 142.128, 373.472 150.009, 379.627 157.891, 385.782 165.773, 391.936 173.654, 398.091 181.536, 404.245 189.418, 410.400 197.299, 416.555 205.181, 422.709 213.063, 428.864 220.945, 435.018 228.826, 441.173 236.708, 447.328 245.204, 453.962 253.705, 448.695 262.206, 443.429 270.706, 438.162 279.207, 432.895 287.708, 427.628 296.208, 422.361 304.709, 417.095 313.209, 411.828 321.710, 406.561 330.211, 401.294 338.711, 396.027 347.212, 390.761 355.713, 385.494 364.213, 380.227 372.714, 374.960 381.214, 369.693 389.715, 364.426 398.216, 359.160 406.716, 353.893 410.604, 351.484 411.754, 341.551 412.905, 331.617 414.056, 321.684 415.207, 311.750 416.358, 301.817 417.508, 291.883 418.659, 281.950 419.810, 272.016 420.961, 262.082 422.112, 252.149 423.263, 242.215 424.413, 232.282 425.564, 222.348 426.715, 212.415 427.866, 202.481 429.017, 192.547 430.168, 182.614 431.318, 172.680 432.469, 162.747 433.620, 152.813 434.771, 142.880 435.324, 138.107 425.653, 135.564 415.981, 133.021 406.310, 130.478 396.639, 127.935 386.968, 125.392 377.296, 122.849 367.625, 120.305 357.954, 117.762 348.283, 115.219 338.611, 112.676 328.940, 110.133 319.269, 107.590 309.598, 105.047 299.927, 102.504 290.255, 99.961 280.584, 97.418 270.913, 94.875 262.606, 92.691 " fill="none" stroke="rgb(0, 0, 0)" stroke-linecap="butt" stroke-linejoin="round" stroke-opacity="1.0" stroke-width="3.0" />
            <path d=" M 78.765, 132.775 87.962, 136.700 97.160, 140.625 106.358, 144.550 115.555, 148.474 124.753, 152.399 133.950, 156.324 143.148, 160.249 152.346, 164.174 161.543, 168.099 170.741, 172.023 179.938, 175.948 189.136, 179.873 198.334, 183.798 207.531, 187.723 216.729, 191.647 225.926, 195.572 235.124, 199.497 243.004, 202.860 " fill="none" stroke="rgb(0, 0, 0)" stroke-linecap="butt" stroke-linejoin="round" stroke-opacity="1.0" stroke-width="3.0" />
            <path d=" M 245.204, 453.962 245.117, 443.963 245.029, 433.963 244.942, 423.963 244.854, 413.964 244.766, 403.964 244.679, 393.965 244.591, 383.965 244.503, 373.965 244.416, 363.966 244.328, 353.966 244.241, 343.967 244.153, 333.967 244.065, 323.967 243.978, 313.968 243.890, 303.968 243.802, 293.968 243.715, 283.969 243.627, 273.969 243.540, 263.970 243.452, 253.970 243.364, 243.970 243.277, 233.971 243.189, 223.971 243.102, 213.971 243.004, 202.860 252.481, 199.669 261.959, 196.478 271.436, 193.287 280.913, 190.096 290.390, 186.905 299.868, 183.714 309.345, 180.523 318.822, 177.332 328.299, 174.141 337.776, 170.951 347.254, 167.760 356.731, 164.569 366.208, 161.378 375.685, 158.187 385.163, 154.996 394.640, 151.805 404.117, 148.614 413.594, 145.423 423.072, 142.232 432.549, 139.041 435.324, 138.107 " fill="none" stroke="rgb(0, 0, 0)" stroke-linecap="butt" stroke-linejoin="round" stroke-opacity="1.0" stroke-width="3.0" />
        </g>
    </g>
</svg>
