<?xml version='1.0' encoding='ascii'?>
<svg xmlns="http://www.w3.org/2000/svg" height="512" version="1.1" width="512">
    <g id="View Layer_LineSet" inkscape:groupmode="lineset" inkscape:label="View Layer_LineSet" xmlns:inkscape="http://www.inkscape.org/namespaces/inkscape">
        <g id="strokes" inkscape:groupmode="layer" inkscape:label="strokes" xmlns:inkscape="http://www.inkscape.org/namespaces/inkscape">
            <path d=" M 260.289, 92.667 250.532, 94.857 240.775, 97.048 231.018, 99.239 221.260, 101.430 211.503, 103.620 201.746, 105.811 191.989, 108.002 182.232, 110.192 172.475, 112.383 162.718, 114.574 152.961, 116.765 143.204, 118.955 133.447, 121.146 123.690, 123.337 113.933, 125.527 104.175, 127.718 94.418, 129.909 84.661, 132.100 78.016, 133.592 79.155, 143.527 80.294, 153.462 81.433, 163.397 82.572, 173.331 83.711, 183.266 84.850, 193.201 85.989, 203.136 87.128, 213.071 88.267, 223.006 89.406, 232.941 90.545, 242.876 91.684, 252.811 92.823, 262.746 93.963, 272.681 95.102, 282.615 96.241, 292.550 97.380, 302.485 98.519, 312.420 99.658, 322.355 100.797, 332.290 102.145, 344.049 110.134, 350.064 118.122, 356.079 126.111, 362.094 134.100, 368.109 142.088, 374.124 150.077, 380.139 158.066, 386.154 166.054, 392.169 174.043, 398.185 182.032, 404.200 190.020, 410.215 198.009, 416.230 205.997, 422.245 213.986, 428.260 221.975, 434.275 229.963, 440.290 237.952, 446.305 245.941, 452.320 248.242, 454.053 256.658, 448.652 265.073, 443.251 273.489, 437.849 281.905, 432.448 290.321, 427.047 298.737, 421.645 307.153, 416.244 315.568, 410.843 323.984, 405.442 332.400, 400.040 340.816, 394.639 349.232, 389.238 357.648, 383.837 366.063, 378.435 374.479, 373.034 382.895, 367.633 391.311, 362.231 399.727, 356.830 408.143, 351.429 410.229, 350.090 411.376, 340.156 412.523, 330.222 413.670, 320.288 414.817, 310.354 415.964, 300.420 417.111, 290.486 418.258, 280.552 419.405, 270.618 420.551, 260.684 421.698, 250.750 422.845, 240.815 423.992, 230.881 425.139, 220.947 426.286, 211.013 427.433, 201.079 428.580, 191.145 429.727, 181.211 430.874, 171.277 432.020, 161.343 433.167, 151.409 434.314, 141.475 434.801, 137.258 425.112, 134.783 415.424, 132.307 405.735, 129.831 396.046, 127.356 386.358, 124.880 376.669, 122.404 366.980, 119.929 357.291, 117.453 347.603, 114.977 337.914, 112.502 328.225, 110.026 318.537, 107.550 308.848, 105.075 299.159, 102.599 289.470, 100.123 279.782, 97.648 270.093, 95.172 260.289, 92.667 " fill="none" stroke="rgb(0, 0, 0)" stroke-linecap="butt" stroke-linejoin="round" stroke-opacity="1.0" stroke-width="3.0" />
            <path d=" M 78.016, 133.592 87.265, 137.394 96.514, 141.196 105.763, 144.998 115.012, 148.800 124.261, 152.602 133.510, 156.405 142.759, 160.207 152.008, 164.009 161.257, 167.811 170.506, 171.613 179.755, 175.415 189.004, 179.217 198.253, 183.020 207.502, 186.822 216.751, 190.624 226.000, 194.426 235.249, 198.228 244.497, 202.030 246.660, 202.919 " fill="none" stroke="rgb(0, 0, 0)" stroke-linecap="butt" stroke-linejoin="round" stroke-opacity="1.0" stroke-width="3.0" />
            <path d=" M 248.242, 454.053 248.179, 444.053 248.116, 434.053 248.053, 424.054 247.990, 414.054 247.927, 404.054 247.864, 394.054 247.801, 384.054 247.738, 374.055 247.675, 364.055 247.612, 354.055 247.549, 344.055 247.486, 334.055 247.423, 324.056 247.360, 314.056 247.297, 304.056 247.234, 294.056 247.171, 284.056 247.108, 274.057 247.045, 264.057 246.982, 254.057 246.919, 244.057 246.856, 234.057 246.793, 224.058 246.730, 214.058 246.660, 202.919 256.102, 199.624 265.543, 196.329 274.985, 193.034 284.426, 189.739 293.868, 186.444 303.309, 183.149 312.751, 179.854 322.193, 176.559 331.634, 173.263 341.076, 169.968 350.517, 166.673 359.959, 163.378 369.400, 160.083 378.842, 156.788 388.283, 153.493 397.725, 150.198 407.166, 146.903 416.608, 143.608 426.049, 140.313 434.801, 137.258 " fill="none" stroke="rgb(0, 0, 0)" stroke-linecap="butt" stroke-linejoin="round" stroke-opacity="1.0" stroke-width="3.0" />
        </g>
    </g>
</svg>
