<?xml version='1.0' encoding='ascii'?>
<svg xmlns="http://www.w3.org/2000/svg" height="512" version="1.1" width="512">
    <g id="View Layer_LineSet" inkscape:groupmode="lineset" inkscape:label="View Layer_LineSet" xmlns:inkscape="http://www.inkscape.org/namespaces/inkscape">
        <g id="strokes" inkscape:groupmode="layer" inkscape:label="strokes" xmlns:inkscape="http://www.inkscape.org/namespaces/inkscape">
            <path d=" M 259.491, 92.661 249.739, 94.872 239.987, 97.084 230.234, 99.296 220.482, 101.508 210.729, 103.719 200.977, 105.931 191.225, 108.143 181.472, 110.355 171.720, 112.566 161.968, 114.778 152.215, 116.990 142.463, 119.202 132.711, 121.413 122.958, 123.625 113.206, 125.837 103.454, 128.049 93.701, 130.260 83.949, 132.472 77.767, 133.874 78.908, 143.809 80.049, 153.744 81.189, 163.678 82.330, 173.613 83.471, 183.548 84.612, 193.482 85.753, 203.417 86.894, 213.352 88.034, 223.287 89.175, 233.221 90.316, 243.156 91.457, 253.091 92.598, 263.025 93.739, 272.960 94.879, 282.895 96.020, 292.830 97.161, 302.764 98.302, 312.699 99.443, 322.634 100.584, 332.568 101.956, 344.515 109.980, 350.482 118.004, 356.449 126.029, 362.417 134.053, 368.384 142.078, 374.351 150.102, 380.319 158.127, 386.286 166.151, 392.253 174.176, 398.220 182.200, 404.188 190.224, 410.155 198.249, 416.122 206.273, 422.089 214.298, 428.057 222.322, 434.024 230.347, 439.991 238.371, 445.958 246.396, 451.926 249.288, 454.077 257.674, 448.629 266.059, 443.181 274.445, 437.733 282.831, 432.285 291.217, 426.838 299.603, 421.390 307.988, 415.942 316.374, 410.494 324.760, 405.047 333.146, 399.599 341.532, 394.151 349.918, 388.703 358.303, 383.256 366.689, 377.808 375.075, 372.360 383.461, 366.912 391.847, 361.464 400.232, 356.017 410.092, 349.611 411.238, 339.677 412.383, 329.743 413.529, 319.809 414.674, 309.875 415.819, 299.941 416.965, 290.006 418.110, 280.072 419.256, 270.138 420.401, 260.204 421.547, 250.270 422.692, 240.336 423.838, 230.401 424.983, 220.467 426.129, 210.533 427.274, 200.599 428.420, 190.665 429.565, 180.730 430.711, 170.796 431.856, 160.862 433.002, 150.928 434.147, 140.994 434.612, 136.967 424.917, 134.515 415.222, 132.062 405.528, 129.609 395.833, 127.156 386.139, 124.703 376.444, 122.251 366.750, 119.798 357.055, 117.345 347.361, 114.892 337.666, 112.439 327.972, 109.987 318.277, 107.534 308.583, 105.081 298.888, 102.628 289.194, 100.175 279.499, 97.723 269.805, 95.270 259.491, 92.661 " fill="none" stroke="rgb(0, 0, 0)" stroke-linecap="butt" stroke-linejoin="round" stroke-opacity="1.0" stroke-width="3.0" />
            <path d=" M 77.767, 133.874 87.033, 137.635 96.299, 141.396 105.565, 145.157 114.830, 148.917 124.096, 152.678 133.362, 156.439 142.628, 160.200 151.894, 163.960 161.160, 167.721 170.426, 171.482 179.692, 175.243 188.958, 179.004 198.223, 182.764 207.489, 186.525 216.755, 190.286 226.021, 194.047 235.287, 197.807 244.553, 201.568 247.919, 202.935 " fill="none" stroke="rgb(0, 0, 0)" stroke-linecap="butt" stroke-linejoin="round" stroke-opacity="1.0" stroke-width="3.0" />
            <path d=" M 249.288, 454.077 249.233, 444.077 249.179, 434.077 249.124, 424.077 249.070, 414.077 249.015, 404.077 248.961, 394.077 248.906, 384.078 248.852, 374.078 248.797, 364.078 248.743, 354.078 248.689, 344.078 248.634, 334.078 248.580, 324.078 248.525, 314.079 248.471, 304.079 248.416, 294.079 248.362, 284.079 248.307, 274.079 248.253, 264.079 248.198, 254.079 248.144, 244.080 248.089, 234.080 248.035, 224.080 247.980, 214.080 247.919, 202.935 257.348, 199.603 266.777, 196.271 276.206, 192.940 285.634, 189.608 295.063, 186.277 304.492, 182.945 313.920, 179.613 323.349, 176.282 332.778, 172.950 342.206, 169.619 351.635, 166.287 361.064, 162.955 370.493, 159.624 379.921, 156.292 389.350, 152.960 398.779, 149.629 408.207, 146.297 417.636, 142.966 427.065, 139.634 434.612, 136.967 " fill="none" stroke="rgb(0, 0, 0)" stroke-linecap="butt" stroke-linejoin="round" stroke-opacity="1.0" stroke-width="3.0" />
        </g>
    </g>
</svg>
